<svg width="24" height="24" viewBox="0 0 24 24" fill="none" xmlns="http://www.w3.org/2000/svg">
<g clip-path="url(#clip0_0_894)">
<path d="M24.0201 12.019C24.0201 10.3904 23.3055 8.85396 22.0935 7.88843C22.2336 6.26386 21.6532 4.67234 20.5022 3.51951C19.3512 2.36869 17.7649 1.78577 16.2216 1.96205C14.2059 -0.598006 9.85126 -0.646082 7.88261 1.92699C4.6469 1.54238 1.53529 4.59121 1.96165 7.8043C-0.596496 9.82149 -0.645537 14.1794 1.92662 16.1505C1.7865 17.7751 2.36699 19.3666 3.51795 20.5194C4.66892 21.6702 6.25725 22.2532 7.79854 22.0769C9.81423 24.6369 14.1689 24.685 16.1375 22.1119C17.7589 22.2512 19.3502 21.6723 20.5022 20.5194C21.6522 19.3676 22.2326 17.7751 22.0585 16.2356C23.3055 15.186 24.0201 13.6496 24.0201 12.021V12.019ZM8.00672 9.01421C8.01272 7.70414 10.0024 7.70414 10.0084 9.01421C10.0024 10.3243 8.01272 10.3243 8.00672 9.01421ZM10.8411 15.5796C10.5328 16.0433 9.90731 16.1615 9.45293 15.857C8.99254 15.5506 8.86844 14.9286 9.1757 14.4678L13.1791 8.45833C13.4853 7.9986 14.1058 7.8724 14.5672 8.18089C15.0276 8.48738 15.1517 9.10936 14.8444 9.57009L10.8411 15.5796ZM15.0126 16.0253C13.7035 16.0193 13.7035 14.0282 15.0126 14.0221C16.3217 14.0282 16.3217 16.0193 15.0126 16.0253Z" fill="#BC8431"/>
</g>
<defs>
<clipPath id="clip0_0_894">
<rect width="24" height="24" fill="white"/>
</clipPath>
</defs>
</svg>
