<svg width="161" height="160" viewBox="0 0 161 160" fill="none" xmlns="http://www.w3.org/2000/svg">
<path d="M70.7431 31.502L80.499 1.61144L90.2549 31.5019C96.2464 49.8586 110.64 64.2527 128.997 70.2441L158.888 80L128.997 89.7559C110.64 95.7473 96.2464 110.141 90.255 128.498L80.499 158.389L70.7431 128.498C64.7517 110.141 50.3577 95.7473 32.001 89.7559L2.11046 80L32.001 70.2441C50.3577 64.2527 64.7517 49.8587 70.7431 31.502Z" stroke="#BC8431"/>
<path d="M65.499 78.4375V75.3125C65.499 74.8152 65.6966 74.3383 66.0482 73.9867C66.3998 73.635 66.8767 73.4375 67.374 73.4375C67.374 73.4375 68.5728 73.4375 68.624 73.4375C69.3975 71.7186 70.3118 70.0668 71.3578 68.4987C71.9823 67.6866 72.8478 67.0929 73.8303 66.8025C76.0315 65.7325 84.9665 65.7325 87.1678 66.8025C88.1503 67.0929 89.0157 67.6866 89.6403 68.4987C90.6862 70.0668 91.6006 71.7186 92.374 73.4375C92.4253 73.4375 93.624 73.4375 93.624 73.4375C94.1213 73.4375 94.5982 73.635 94.9498 73.9867C95.3015 74.3383 95.499 74.8152 95.499 75.3125V78.4375C90.5323 77.6888 85.5212 77.2712 80.499 77.1875C75.4768 77.2712 70.4658 77.6888 65.499 78.4375ZM95.499 80.9662V83.4375C95.499 84.7636 94.9722 86.0354 94.0346 86.973C93.0969 87.9107 91.8251 88.4375 90.499 88.4375H70.499C69.1729 88.4375 67.9012 87.9107 66.9635 86.973C66.0258 86.0354 65.499 84.7636 65.499 83.4375V80.9713C70.4651 80.212 75.4761 79.7831 80.499 79.6875C85.5219 79.7831 90.5329 80.212 95.499 80.9713V80.9662ZM72.999 84.6875C72.999 84.356 72.8673 84.038 72.6329 83.8036C72.3985 83.5692 72.0805 83.4375 71.749 83.4375C71.4175 83.4375 71.0996 83.5692 70.8651 83.8036C70.6307 84.038 70.499 84.356 70.499 84.6875C70.499 85.019 70.6307 85.337 70.8651 85.5714C71.0996 85.8058 71.4175 85.9375 71.749 85.9375C72.0805 85.9375 72.3985 85.8058 72.6329 85.5714C72.8673 85.337 72.999 85.019 72.999 84.6875ZM90.499 84.6875C90.499 84.356 90.3673 84.038 90.1329 83.8036C89.8985 83.5692 89.5805 83.4375 89.249 83.4375C88.9175 83.4375 88.5996 83.5692 88.3651 83.8036C88.1307 84.038 87.999 84.356 87.999 84.6875C87.999 85.019 88.1307 85.337 88.3651 85.5714C88.5996 85.8058 88.9175 85.9375 89.249 85.9375C89.5805 85.9375 89.8985 85.8058 90.1329 85.5714C90.3673 85.337 90.499 85.019 90.499 84.6875ZM74.1765 90.9375C74.9103 95.88 67.3365 95.8775 68.0715 90.9375H74.1765ZM92.9265 90.9375C93.6603 95.88 86.0865 95.8775 86.8215 90.9375H92.9265Z" fill="#BC8431"/>
</svg>
