<svg width="161" height="160" viewBox="0 0 161 160" fill="none" xmlns="http://www.w3.org/2000/svg">
<path d="M70.7431 31.502L80.499 1.61144L90.2549 31.5019C96.2464 49.8586 110.64 64.2527 128.997 70.2441L158.888 80L128.997 89.7559C110.64 95.7473 96.2464 110.141 90.255 128.498L80.499 158.389L70.7431 128.498C64.7517 110.141 50.3577 95.7473 32.001 89.7559L2.11046 80L32.001 70.2441C50.3577 64.2527 64.7517 49.8587 70.7431 31.502Z" stroke="#BC8431"/>
<path d="M78.0056 94.4284C78.0056 94.759 77.8743 95.0761 77.6405 95.3099C77.4067 95.5436 77.0896 95.675 76.759 95.675H66.7862C66.4555 95.675 66.1385 95.5436 65.9047 95.3099C65.6709 95.0761 65.5396 94.759 65.5396 94.4284C65.5396 94.0977 65.6709 93.7807 65.9047 93.5469C66.1385 93.3131 66.4555 93.1818 66.7862 93.1818H76.759C77.0896 93.1818 77.4067 93.3131 77.6405 93.5469C77.8743 93.7807 78.0056 94.0977 78.0056 94.4284Z" fill="#BC8431"/>
<path d="M66.7862 90.6887H74.2658C74.5964 90.6887 74.9135 90.5574 75.1473 90.3236C75.3811 90.0898 75.5124 89.7727 75.5124 89.4421C75.5124 89.1115 75.3811 88.7944 75.1473 88.5606C74.9135 88.3268 74.5964 88.1955 74.2658 88.1955H66.7862C66.4555 88.1955 66.1385 88.3268 65.9047 88.5606C65.6709 88.7944 65.5396 89.1115 65.5396 89.4421C65.5396 89.7727 65.6709 90.0898 65.9047 90.3236C66.1385 90.5574 66.4555 90.6887 66.7862 90.6887Z" fill="#BC8431"/>
<path d="M66.7862 85.7024H71.7726C72.1032 85.7024 72.4203 85.571 72.6541 85.3373C72.8878 85.1035 73.0192 84.7864 73.0192 84.4558C73.0192 84.1252 72.8878 83.8081 72.6541 83.5743C72.4203 83.3405 72.1032 83.2092 71.7726 83.2092H66.7862C66.4555 83.2092 66.1385 83.3405 65.9047 83.5743C65.6709 83.8081 65.5396 84.1252 65.5396 84.4558C65.5396 84.7864 65.6709 85.1035 65.9047 85.3373C66.1385 85.571 66.4555 85.7024 66.7862 85.7024Z" fill="#BC8431"/>
<path d="M80.4988 65.7565C76.5314 65.7565 72.7264 67.3325 69.921 70.1379C67.1156 72.9433 65.5396 76.7483 65.5396 80.7157C65.5396 80.7918 65.5495 80.8653 65.5508 80.9414C65.9467 80.7963 66.3645 80.7199 66.7862 80.7157H71.7726C72.3845 80.7137 72.9876 80.8623 73.5285 81.1485C74.0694 81.4347 74.5315 81.8497 74.874 82.3568C75.2165 82.864 75.4289 83.4476 75.4924 84.0563C75.5559 84.6649 75.4686 85.2798 75.2381 85.8468C75.7486 85.9807 76.2245 86.222 76.6342 86.5546C77.0439 86.8872 77.3779 87.3034 77.6139 87.7754C77.8499 88.2474 77.9824 88.7643 78.0027 89.2916C78.023 89.8189 77.9304 90.3445 77.7313 90.8332C78.2299 90.9603 78.6962 91.1907 79.1001 91.5095C79.504 91.8282 79.8364 92.2281 80.076 92.6835C80.3156 93.1388 80.457 93.6393 80.4909 94.1527C80.5249 94.6661 80.4507 95.1809 80.2732 95.6638C80.3492 95.6638 80.4228 95.675 80.4988 95.675C84.4663 95.675 88.2712 94.0989 91.0766 91.2935C93.882 88.4881 95.4581 84.6832 95.4581 80.7157C95.4581 76.7483 93.882 72.9433 91.0766 70.1379C88.2712 67.3325 84.4663 65.7565 80.4988 65.7565ZM85.12 85.3369C84.8862 85.5706 84.5692 85.7019 84.2386 85.7019C83.9081 85.7019 83.591 85.5706 83.3573 85.3369L79.6175 81.5971C79.3837 81.3633 79.2523 81.0463 79.2522 80.7157V74.4827C79.2522 74.1521 79.3835 73.835 79.6173 73.6012C79.8511 73.3674 80.1682 73.2361 80.4988 73.2361C80.8294 73.2361 81.1465 73.3674 81.3803 73.6012C81.6141 73.835 81.7454 74.1521 81.7454 74.4827V80.1996L85.12 83.5742C85.3537 83.808 85.485 84.125 85.485 84.4555C85.485 84.7861 85.3537 85.1031 85.12 85.3369Z" fill="#BC8431"/>
</svg>
