<svg width="24" height="24" viewBox="0 0 24 24" fill="none" xmlns="http://www.w3.org/2000/svg">
<path d="M19.944 2.633L12 0L4.056 2.633C3.45747 2.83142 2.93668 3.21338 2.5676 3.72463C2.19852 4.23589 1.99992 4.85044 2 5.481V11.991C2 19.515 11.2 23.67 11.594 23.843L11.948 24L12.316 23.878C12.712 23.746 22 20.568 22 11.991V5.481C22.0001 4.85044 21.8015 4.23589 21.4324 3.72463C21.0633 3.21338 20.5425 2.83142 19.944 2.633ZM12.444 13.98C12.2692 14.156 12.0611 14.2955 11.832 14.3904C11.6028 14.4854 11.3571 14.5338 11.109 14.533H11.076C10.8229 14.5291 10.5732 14.474 10.342 14.3708C10.1108 14.2677 9.90298 14.1188 9.731 13.933L7.425 11.533L8.868 10.151L11.112 12.491L16.293 7.31L17.707 8.724L12.444 13.98Z" fill="#BC8431"/>
</svg>
