<svg width="24" height="24" viewBox="0 0 24 24" fill="none" xmlns="http://www.w3.org/2000/svg">
<g clip-path="url(#clip0_0_902)">
<path d="M3.63805 8.99997C3.02005 8.99997 2.54005 8.44197 2.64905 7.83397C3.00805 5.83297 4.00505 3.97297 5.50405 2.56797C7.43905 0.752971 9.96605 -0.152029 12.6301 0.0209712C17.6511 0.344971 21.5731 4.71597 21.4991 9.93797C21.4591 12.756 19.1101 15.001 16.2911 15.001H13.3591C12.9991 15.347 12.5131 15.562 11.9751 15.562C10.8701 15.562 9.97505 14.667 9.97505 13.562C9.97505 12.457 10.8701 11.562 11.9751 11.562C12.8831 11.562 13.6411 12.171 13.8851 13.001H16.2911C18.0271 13.001 19.4801 11.618 19.4991 9.88297C19.5451 5.73697 16.4541 2.27397 12.5011 2.01797C10.4021 1.88797 8.40005 2.59597 6.87105 4.02897C5.66205 5.16197 4.88305 6.61297 4.61005 8.20697C4.53005 8.67297 4.11005 9.00197 3.63805 9.00197V8.99997ZM12.0001 17C8.30505 17 5.10805 19.292 4.04505 22.702C3.95005 23.006 4.00505 23.337 4.19405 23.593C4.38305 23.849 4.68205 24 5.00005 24H19.0001C19.3181 24 19.6171 23.849 19.8061 23.593C19.9951 23.337 20.0501 23.006 19.9551 22.702C18.8921 19.292 15.6951 17 12.0001 17ZM14.9341 11H17.2881C17.4231 10.523 17.5001 10.021 17.5001 9.49997C17.5001 6.46197 15.0381 3.99997 12.0001 3.99997C8.96205 3.99997 6.50005 6.46197 6.50005 9.49997C6.50005 10.991 7.09605 12.341 8.05905 13.332C8.18005 11.266 9.87805 9.62297 11.9751 9.62297C13.1661 9.62297 14.2161 10.164 14.9351 11H14.9341Z" fill="#BC8431"/>
</g>
<defs>
<clipPath id="clip0_0_902">
<rect width="24" height="24" fill="white"/>
</clipPath>
</defs>
</svg>
