<svg width="161" height="160" viewBox="0 0 161 160" fill="none" xmlns="http://www.w3.org/2000/svg">
<path d="M70.7431 31.502L80.499 1.61144L90.2549 31.5019C96.2464 49.8586 110.64 64.2527 128.997 70.2441L158.888 80L128.997 89.7559C110.64 95.7473 96.2464 110.141 90.255 128.498L80.499 158.389L70.7431 128.498C64.7517 110.141 50.3577 95.7473 32.001 89.7559L2.11046 80L32.001 70.2441C50.3577 64.2527 64.7517 49.8587 70.7431 31.502Z" stroke="#BC8431"/>
<path d="M92.3824 65.2717L80.4988 61.3329L68.6152 65.2717C67.7198 65.5685 66.9408 66.1399 66.3886 66.9047C65.8365 67.6695 65.5394 68.5888 65.5396 69.5321V79.2705C65.5396 90.5259 79.3021 96.7415 79.8915 97.0002L80.421 97.2351L80.9715 97.0526C81.5639 96.8551 95.4581 92.1011 95.4581 79.2705V69.5321C95.4582 68.5888 95.1611 67.6695 94.609 66.9047C94.0569 66.1399 93.2778 65.5685 92.3824 65.2717ZM81.163 82.2459C80.9015 82.5092 80.5903 82.7179 80.2475 82.8599C79.9046 83.0019 79.537 83.0744 79.1659 83.0732H79.1166C78.7379 83.0674 78.3644 82.9848 78.0186 82.8306C77.6728 82.6763 77.3618 82.4535 77.1046 82.1756L73.6549 78.5854L75.8136 76.518L79.1704 80.0185L86.9208 72.2681L89.0361 74.3833L81.163 82.2459Z" fill="#BC8431"/>
</svg>
