<svg width="24" height="24" viewBox="0 0 24 24" fill="none" xmlns="http://www.w3.org/2000/svg">
<path d="M12 0C8.81846 0.00344108 5.76821 1.26883 3.51852 3.51852C1.26883 5.76821 0.00344108 8.81846 0 12C0.6 27.9 23.4 27.893 24 12C23.9966 8.81846 22.7312 5.76821 20.4815 3.51852C18.2318 1.26883 15.1815 0.00344108 12 0ZM12 3C13.7759 3.00171 15.5117 3.52807 16.9895 4.513C18.4672 5.49793 19.621 6.89752 20.306 8.536L14.024 9.793C12.641 10.069 11.217 10.069 9.834 9.793L3.683 8.562C4.36481 6.917 5.51863 5.51083 6.99883 4.52094C8.47904 3.53105 10.2193 3.00181 12 3ZM3.006 12.307L6.16 12.938C6.73573 13.0532 7.27905 13.2937 7.75138 13.6424C8.22372 13.9912 8.61348 14.4397 8.893 14.956L9.518 16.109C9.83353 16.6926 9.99915 17.3455 10 18.009V20.772C8.06491 20.3278 6.33051 19.2574 5.06591 17.7269C3.80131 16.1963 3.07722 14.2911 3.006 12.307ZM14 20.776V18.013C14.0008 17.3495 14.1665 16.6966 14.482 16.113L15.107 14.96C15.3865 14.4437 15.7763 13.9952 16.2486 13.6464C16.7209 13.2977 17.2643 13.0572 17.84 12.942L20.994 12.311C20.9228 14.2951 20.1987 16.2003 18.9341 17.7309C17.6695 19.2614 15.9351 20.3318 14 20.776Z" fill="#BC8431"/>
</svg>
