<svg width="161" height="160" viewBox="0 0 161 160" fill="none" xmlns="http://www.w3.org/2000/svg">
<path d="M70.7431 31.502L80.499 1.61144L90.2549 31.5019C96.2464 49.8586 110.64 64.2527 128.997 70.2441L158.888 80L128.997 89.7559C110.64 95.7473 96.2464 110.141 90.255 128.498L80.499 158.389L70.7431 128.498C64.7517 110.141 50.3577 95.7473 32.001 89.7559L2.11046 80L32.001 70.2441C50.3577 64.2527 64.7517 49.8587 70.7431 31.502Z" stroke="#BC8431"/>
<path d="M76.0432 69.3112C76.0432 66.5575 80.2293 64.3248 85.3927 64.3248C90.5561 64.3248 94.7422 66.5575 94.7422 69.3112C94.7422 72.065 90.5561 74.2977 85.3927 74.2977C80.2293 74.2977 76.0432 72.065 76.0432 69.3112ZM85.3927 76.7909C84.1124 76.7909 82.8983 76.6475 81.7888 76.3982C80.0946 75.1279 77.3185 74.2977 74.1733 74.2977C69.0098 74.2977 64.8237 76.5303 64.8237 79.2841C64.8237 82.0378 69.0098 84.2705 74.1733 84.2705C79.3367 84.2705 83.5228 82.0378 83.5228 79.2841C83.5228 79.2479 83.5141 79.213 83.5128 79.1769H83.5228V81.7773C83.5228 84.531 79.3367 86.7637 74.1733 86.7637C69.0098 86.7637 64.8237 84.531 64.8237 81.7773V84.2705C64.8237 87.0243 69.0098 89.2569 74.1733 89.2569C79.3367 89.2569 83.5228 87.0243 83.5228 84.2705V86.7637C83.5228 89.5175 79.3367 91.7501 74.1733 91.7501C69.0098 91.7501 64.8237 89.5175 64.8237 86.7637V89.2569C64.8237 92.0107 69.0098 94.2433 74.1733 94.2433C79.3367 94.2433 83.5228 92.0107 83.5228 89.2569V89.1572C84.1274 89.222 84.752 89.2569 85.3927 89.2569C90.5561 89.2569 94.7422 87.0243 94.7422 84.2705V81.7773C94.7422 84.4189 90.8877 86.5755 86.016 86.7475V84.2543C90.8877 84.0823 94.7422 81.9269 94.7422 79.2841V76.7909C94.7422 79.4324 90.8877 81.5891 86.016 81.7611V79.2679C90.8877 79.0959 94.7422 76.9405 94.7422 74.2977V71.8045C94.7422 74.5582 90.5561 76.7909 85.3927 76.7909Z" fill="#BC8431"/>
</svg>
