<svg width="16" height="16" viewBox="0 0 16 16" fill="none" xmlns="http://www.w3.org/2000/svg">
<path d="M3.27328 8.83027C4.22485 10.3353 5.46159 11.5988 6.94161 12.5791L8.866 11.1382C9.47279 10.6837 9.8637 10.3909 10.3066 10.2158C10.6983 10.061 11.1143 9.97715 11.5353 9.96817C12.0115 9.95801 12.4853 10.0766 13.2208 10.2606L13.9181 10.4349C14.416 10.5589 14.8053 10.6558 15.1154 10.8706C15.4581 11.108 15.7205 11.4441 15.8677 11.8342C16.0009 12.187 16.0005 12.5806 16.0001 13.0822L16 13.1944C16 13.5539 16 13.8583 15.9785 14.1109C15.9558 14.3781 15.9065 14.628 15.7858 14.8711C15.5608 15.3246 15.1056 15.7274 14.6281 15.8956C14.1713 16.0565 13.7209 16.0008 13.1602 15.9314L13.0695 15.9202C10.6687 15.6258 8.51179 14.8789 6.67098 13.7366C4.78268 12.5649 3.23533 10.9824 2.10238 9.06294C1.05078 7.28134 0.360186 5.21643 0.079881 2.93046L0.0687031 2.83982C-0.000650674 2.27915 -0.0563542 1.82884 0.104556 1.37201C0.272755 0.894481 0.675494 0.439343 1.129 0.214275C1.371 0.0941723 1.61811 0.0445861 1.88282 0.0216668C2.13202 8.99102e-05 2.43109 9.83255e-05 2.78295 0.000108255L2.89869 5.33071e-05C3.41184 -0.000408499 3.81304 -0.000769577 4.16594 0.132385C4.55604 0.279578 4.89213 0.541984 5.12954 0.88474C5.34431 1.19481 5.44126 1.58412 5.56527 2.08206L5.70008 2.62148C5.89712 3.40895 6.02403 3.91611 6.00458 4.42289C5.98739 4.87076 5.88551 5.31132 5.70433 5.72127C5.49931 6.18514 5.16264 6.5851 4.63989 7.20611L3.27328 8.83027Z" fill="#292828"/>
<mask id="mask0_0_846" style="mask-type:alpha" maskUnits="userSpaceOnUse" x="0" y="0" width="17" height="16">
<path d="M3.27328 8.83027C4.22485 10.3353 5.46159 11.5988 6.94161 12.5791L8.866 11.1382C9.47279 10.6837 9.8637 10.3909 10.3066 10.2158C10.6983 10.061 11.1143 9.97715 11.5353 9.96817C12.0115 9.95801 12.4853 10.0766 13.2208 10.2606L13.9181 10.4349C14.416 10.5589 14.8053 10.6558 15.1154 10.8706C15.4581 11.108 15.7205 11.4441 15.8677 11.8342C16.0009 12.187 16.0005 12.5806 16.0001 13.0822L16 13.1944C16 13.5539 16 13.8583 15.9785 14.1109C15.9558 14.3781 15.9065 14.628 15.7858 14.8711C15.5608 15.3246 15.1056 15.7274 14.6281 15.8956C14.1713 16.0565 13.7209 16.0008 13.1602 15.9314L13.0695 15.9202C10.6687 15.6258 8.51179 14.8789 6.67098 13.7366C4.78268 12.5649 3.23533 10.9824 2.10238 9.06294C1.05078 7.28134 0.360186 5.21643 0.079881 2.93046L0.0687031 2.83982C-0.000650674 2.27915 -0.0563542 1.82884 0.104556 1.37201C0.272755 0.894481 0.675494 0.439343 1.129 0.214275C1.371 0.0941723 1.61811 0.0445861 1.88282 0.0216668C2.13202 8.99102e-05 2.43109 9.83255e-05 2.78295 0.000108255L2.89869 5.33071e-05C3.41184 -0.000408499 3.81304 -0.000769577 4.16594 0.132385C4.55604 0.279578 4.89213 0.541984 5.12954 0.88474C5.34431 1.19481 5.44126 1.58412 5.56527 2.08206L5.70008 2.62148C5.89712 3.40895 6.02403 3.91611 6.00458 4.42289C5.98739 4.87076 5.88551 5.31132 5.70433 5.72127C5.49931 6.18514 5.16264 6.5851 4.63989 7.20611L3.27328 8.83027Z" fill="#B4122D"/>
</mask>
<g mask="url(#mask0_0_846)">
<path d="M5.85731 7.67818C8.05401 6.24633 8.44195 2.94865 6.72366 0.312576C5.00537 -2.3234 1.8318 -3.29964 -0.364896 -1.8677C-2.56159 -0.435858 -2.94953 2.86183 -1.23124 5.49781C-0.4767 6.65552 -0.720938 7.854 0.389083 8.30806C-0.443159 8.88359 0.697339 9.79782 1.36379 10.8201C2.03972 11.8571 3.88226 12.6975 4.2488 11.7588C4.61535 10.8201 3.85065 9.51533 3.73538 9.33832C3.62011 9.16131 4.24554 8.44549 4.10163 8.30806C4.72157 8.23547 5.3189 8.02919 5.85731 7.67818Z" fill="#BC8431"/>
</g>
</svg>
