<svg width="37" height="38" viewBox="0 0 37 38" fill="none" xmlns="http://www.w3.org/2000/svg">
<rect x="0.779731" y="8.81272" width="29" height="29" rx="14.5" transform="rotate(-15 0.779731 8.81272)" stroke="#161616"/>
<path d="M19.8115 26.2826C18.1644 26.7307 17.0233 25.9621 16.9518 24.5041C16.8778 23.0105 16.9206 21.5105 16.9148 20.0134C16.9128 19.4103 16.9284 18.8071 16.916 18.2046C16.905 17.6732 16.6761 17.5326 16.1456 17.7031C16.0559 17.7317 15.9681 17.7677 15.8792 17.7994C15.6131 17.8923 15.3024 18.055 15.1562 17.6891C14.9986 17.2934 15.3593 17.1945 15.6359 17.0841C16.2833 16.8244 16.9343 16.5739 17.5848 16.3214C18.0589 16.1376 18.5366 15.9585 19.0101 15.7727C19.6332 15.5274 19.818 15.6481 19.8176 16.3164C19.8152 18.2344 19.8093 20.1522 19.8058 22.0705C19.8055 22.4722 19.786 22.8768 19.8221 23.2744C19.8722 23.8203 20.2417 24.039 20.7195 23.7419C21.0655 23.5267 21.2941 23.1364 21.5931 22.8419C21.7454 22.6921 21.9397 22.5811 22.1153 22.4523C22.1961 22.6621 22.3831 22.8957 22.3397 23.0797C21.9754 24.6148 21.1516 25.8055 19.8115 26.2826Z" fill="#161616"/>
<path d="M18.399 14.2756C17.4029 14.539 16.3937 13.9779 16.1284 13.0142C15.8544 12.0178 16.4487 11.0258 17.4806 10.7561C18.4873 10.4932 19.4869 11.0445 19.7535 12.0089C20.0247 12.9902 19.4188 14.0046 18.3987 14.2745L18.399 14.2756Z" fill="#161616"/>
</svg>
