<svg width="120" height="120" viewBox="0 0 120 120" fill="none" xmlns="http://www.w3.org/2000/svg">
<circle opacity="0.6" cx="60" cy="60" r="59.5" stroke="#D9D9D9"/>
<path opacity="0.6" d="M51.403 67.9152L68.3736 50.9447M68.3736 50.9447L55.2214 51.3689M68.3736 50.9447L67.9493 64.0969" stroke="#BC8431" stroke-linecap="round" stroke-linejoin="round"/>
<g opacity="0.6">
<path d="M99.1747 61.0361L108.998 62.2536L108.576 65.6575C108.518 66.1207 108.428 66.5421 108.306 66.922C108.184 67.3018 108.016 67.629 107.804 67.9036C107.591 68.1782 107.317 68.3747 106.983 68.4931C106.647 68.6208 106.239 68.6548 105.757 68.5951C105.21 68.5274 104.76 68.3305 104.405 68.0044C104.05 67.6876 103.815 67.2682 103.701 66.7462C103.527 67.3923 103.199 67.869 102.719 68.1763C102.247 68.494 101.669 68.6104 100.983 68.5254C100.455 68.46 100.029 68.2989 99.7029 68.0423C99.3855 67.796 99.1473 67.4796 98.9883 67.0932C98.8293 66.7067 98.7362 66.2813 98.7091 65.8171C98.682 65.3529 98.6994 64.8707 98.7614 64.3706L99.1747 61.0361ZM99.9538 62.1484L99.6697 64.4408C99.6318 64.7465 99.6107 65.0683 99.6064 65.4064C99.6022 65.7444 99.6378 66.0639 99.7134 66.3648C99.7982 66.6669 99.9547 66.9214 100.183 67.1284C100.411 67.3354 100.734 67.4647 101.151 67.5163C101.521 67.5623 101.831 67.5301 102.08 67.4199C102.328 67.3096 102.532 67.1421 102.692 66.9174C102.86 66.7031 102.985 66.4506 103.068 66.1599C103.159 65.8796 103.224 65.5867 103.262 65.281L103.594 62.5996L99.9538 62.1484ZM104.483 62.7098L104.233 64.7243C104.191 65.0671 104.183 65.3999 104.208 65.7229C104.233 66.0551 104.304 66.3554 104.421 66.6239C104.538 66.8923 104.709 67.1109 104.932 67.2797C105.155 67.4578 105.447 67.5692 105.808 67.614C106.271 67.6714 106.627 67.6073 106.876 67.4218C107.124 67.2364 107.307 66.9769 107.424 66.6433C107.539 66.3191 107.621 65.9578 107.671 65.5595L107.97 63.142L104.483 62.7098Z" fill="white"/>
<path d="M97.6309 71.2598L106.718 75.1835L106.318 76.1089L102.488 74.455L101.789 76.0745C101.597 76.5201 101.377 76.9337 101.131 77.3154C100.89 77.7094 100.613 78.0322 100.301 78.2838C99.9856 78.544 99.6224 78.7023 99.2117 78.7588C98.801 78.8153 98.3257 78.727 97.7859 78.4939C97.2632 78.2682 96.8651 77.9895 96.5914 77.6579C96.3141 77.3348 96.135 76.9728 96.0539 76.5718C95.9729 76.1708 95.9759 75.7401 96.063 75.2795C96.1463 74.8275 96.2934 74.3573 96.5043 73.8689L97.6309 71.2598ZM98.0668 72.5459L97.4008 74.0883C97.2602 74.4139 97.1447 74.7402 97.0544 75.0671C96.9689 75.4064 96.9325 75.7261 96.9452 76.0264C96.9627 76.339 97.06 76.6199 97.237 76.8692C97.4189 77.1307 97.7112 77.3484 98.1139 77.5223C98.5166 77.6962 98.8651 77.7603 99.1594 77.7145C99.4536 77.6687 99.7101 77.5456 99.9288 77.3452C100.147 77.1449 100.341 76.8978 100.508 76.6041C100.672 76.319 100.822 76.018 100.959 75.7009L101.653 74.0943L98.0668 72.5459ZM94.3898 78.7659L103.477 82.6896L103.077 83.615L93.9902 79.6913L94.3898 78.7659Z" fill="white"/>
<path d="M91.9788 82.5285L99.6071 88.8357L98.9648 89.6125L95.3718 86.6418L94.3191 87.915L95.8068 93.4321L95.0663 94.3276L93.5362 88.4666L87.4202 88.0421L88.1785 87.1249L93.5375 87.4323L94.6705 86.062L91.3365 83.3054L91.9788 82.5285Z" fill="white"/>
<path d="M85.0109 90.0199L85.5792 90.8011C85.232 91.0537 84.964 91.3121 84.7754 91.5763C84.5867 91.8405 84.4649 92.1253 84.41 92.4306C84.3607 92.7435 84.3621 93.0945 84.4143 93.4836L91.9172 97.2532L90.9549 97.9532L84.5842 94.693L86.2111 101.404L85.3281 102.046L84.0193 96.3677C83.9541 96.1036 83.8786 95.7776 83.7927 95.3899C83.7124 95.0098 83.639 94.6073 83.5724 94.1826C83.5057 93.7578 83.4669 93.3475 83.4559 92.9515C83.4374 92.5611 83.461 92.2207 83.5268 91.9305C83.6277 91.5455 83.8026 91.199 84.0517 90.8908C84.2987 90.5957 84.6184 90.3054 85.0109 90.0199Z" fill="white"/>
<path d="M77.1745 95.2387L80.6169 104.519L73.3845 107.202L69.9421 97.9216L70.8871 97.571L74.0131 105.998L79.3554 104.016L76.2294 95.5893L77.1745 95.2387Z" fill="white"/>
<path d="M61.7184 99.1983L57.3258 108.829L55.9427 108.738L52.8475 98.6156L53.9511 98.6881L54.6182 100.921L59.6614 101.252L60.6148 99.1258L61.7184 99.1983ZM59.2665 102.138L54.9079 101.852L56.7027 107.848L59.2665 102.138Z" fill="white"/>
<path d="M50.9736 98.1407L47.7766 107.508L44.5304 106.4C44.0888 106.25 43.6945 106.076 43.3476 105.878C43.0007 105.681 42.7146 105.45 42.4892 105.186C42.2639 104.922 42.1273 104.614 42.0797 104.262C42.0232 103.907 42.0733 103.501 42.2301 103.041C42.4079 102.52 42.6927 102.119 43.0843 101.839C43.467 101.555 43.9256 101.411 44.4598 101.406C43.8628 101.103 43.4629 100.686 43.2601 100.153C43.0455 99.6262 43.0497 99.0359 43.2728 98.3823C43.4446 97.8788 43.6894 97.4939 44.0071 97.2276C44.313 96.9671 44.6713 96.7984 45.0821 96.7217C45.4929 96.6449 45.9283 96.6407 46.3883 96.7089C46.8482 96.7771 47.3167 96.8926 47.7937 97.0554L50.9736 98.1407ZM49.7257 98.6763L47.5395 97.9302C47.248 97.8307 46.9372 97.7444 46.6072 97.6712C46.2771 97.598 45.9571 97.5676 45.6471 97.5802C45.3341 97.6016 45.053 97.7029 44.8037 97.8841C44.5545 98.0653 44.3621 98.3546 44.2264 98.7521C44.1058 99.1055 44.0741 99.4151 44.1312 99.6812C44.1884 99.9472 44.3107 100.181 44.4981 100.383C44.6737 100.591 44.8953 100.765 45.1629 100.906C45.4186 101.053 45.6923 101.175 45.9838 101.275L48.5409 102.148L49.7257 98.6763ZM48.2515 102.996L46.3303 102.34C46.0035 102.228 45.6794 102.152 45.358 102.112C45.0277 102.068 44.7192 102.076 44.4325 102.136C44.1457 102.196 43.8969 102.318 43.6861 102.503C43.4664 102.684 43.2977 102.947 43.1801 103.292C43.0294 103.733 43.0195 104.095 43.1503 104.376C43.2811 104.657 43.4978 104.889 43.8005 105.071C44.0944 105.25 44.4313 105.405 44.8111 105.535L47.1165 106.321L48.2515 102.996Z" fill="white"/>
<path d="M39.4149 93.1338L34.59 100.717L37.3303 102.461L36.8418 103.228L30.5107 99.2L30.9992 98.4322L33.7396 100.176L38.5645 92.5927L39.4149 93.1338Z" fill="white"/>
<path d="M31.2897 86.23C31.9833 86.987 32.4017 87.7682 32.545 88.5738C32.6819 89.3725 32.588 90.1611 32.2634 90.9396C31.9324 91.7113 31.4126 92.4219 30.7038 93.0714C29.9882 93.7272 29.2316 94.1863 28.434 94.4488C27.6302 94.7043 26.8364 94.7292 26.0527 94.5232C25.2626 94.3104 24.5208 93.8255 23.8272 93.0686C23.1335 92.3117 22.7183 91.5339 22.5814 90.7352C22.4445 89.9365 22.5415 89.1513 22.8724 88.3796C23.197 87.6011 23.7172 86.8839 24.4328 86.2281C25.1416 85.5786 25.8979 85.1261 26.7017 84.8705C27.4993 84.6081 28.2899 84.5798 29.0737 84.7857C29.8574 84.9917 30.5961 85.4731 31.2897 86.23ZM30.6188 86.8449C30.0639 86.2393 29.4691 85.8666 28.8344 85.7266C28.1998 85.5866 27.5668 85.6349 26.9355 85.8716C26.291 86.1077 25.6901 86.4812 25.1327 86.9919C24.713 87.3766 24.3678 87.7942 24.0971 88.2448C23.8201 88.6885 23.6414 89.1498 23.5611 89.6285C23.4808 90.1072 23.5159 90.5877 23.6667 91.0699C23.8111 91.5452 24.0882 92.0065 24.4981 92.4538C25.0467 93.0524 25.6449 93.422 26.2928 93.5626C26.9274 93.7026 27.5701 93.658 28.2209 93.4287C28.8585 93.1989 29.456 92.8286 30.0134 92.3179C30.5638 91.8134 30.9848 91.2505 31.2761 90.629C31.5606 90.0139 31.661 89.3775 31.5774 88.7198C31.4869 88.0685 31.1674 87.4435 30.6188 86.8449Z" fill="white"/>
<path d="M18.034 70.8685C18.0877 71.0763 18.0678 71.2598 17.974 71.4191C17.8802 71.5783 17.7294 71.6848 17.5216 71.7386C17.3228 71.79 17.1438 71.7689 16.9846 71.6751C16.8254 71.5814 16.7188 71.4306 16.6651 71.2228C16.6136 71.024 16.6336 70.8405 16.725 70.6722C16.8164 70.5039 16.9615 70.394 17.1603 70.3426C17.3682 70.2888 17.5528 70.3133 17.7144 70.4161C17.8737 70.5099 17.9802 70.6607 18.034 70.8685Z" fill="white"/>
<path d="M21.0739 55.4059L11.4042 53.2923L12.1366 49.9414C12.2363 49.4855 12.3644 49.074 12.5211 48.707C12.6777 48.34 12.8746 48.0295 13.1116 47.7756C13.3486 47.5217 13.6391 47.3511 13.983 47.2639C14.3289 47.1675 14.7389 47.1712 15.213 47.2748C15.751 47.3924 16.1816 47.6298 16.5047 47.9871C16.8299 48.3352 17.0253 48.7744 17.0909 49.3046C17.3236 48.6772 17.6931 48.2325 18.1993 47.9705C18.6985 47.6975 19.2854 47.6347 19.9602 47.7822C20.4799 47.8958 20.8901 48.0953 21.1907 48.3808C21.4842 48.6551 21.6924 48.992 21.8153 49.3915C21.9382 49.7909 21.9918 50.223 21.9762 50.6877C21.9606 51.1525 21.899 51.631 21.7914 52.1234L21.0739 55.4059ZM20.4001 54.2268L20.8934 51.9701C20.9592 51.6692 21.0097 51.3506 21.045 51.0144C21.0803 50.6782 21.0741 50.3568 21.0265 50.0502C20.9697 49.7416 20.8372 49.4738 20.6288 49.2468C20.4205 49.0197 20.1112 48.8614 19.7009 48.7717C19.3362 48.6919 19.0249 48.6956 18.767 48.7825C18.5092 48.8695 18.2905 49.0175 18.1111 49.2267C17.9245 49.4247 17.7765 49.6647 17.6671 49.9465C17.5506 50.2172 17.4595 50.503 17.3937 50.8039L16.8167 53.4435L20.4001 54.2268ZM15.9414 53.2522L16.3749 51.269C16.4486 50.9317 16.4875 50.601 16.4914 50.277C16.4973 49.944 16.4543 49.6384 16.3622 49.3603C16.2701 49.0822 16.1205 48.8489 15.9133 48.6603C15.7081 48.4626 15.4277 48.3249 15.0721 48.2471C14.6162 48.1475 14.2559 48.1786 13.9913 48.3405C13.7266 48.5024 13.5209 48.744 13.3742 49.0655C13.2295 49.3778 13.1143 49.73 13.0286 50.122L12.5085 52.5018L15.9414 53.2522Z" fill="white"/>
<path d="M23.526 45.3965L14.8416 40.6476L15.3253 39.7632L18.9857 41.7649L19.8321 40.2171C20.0649 39.7913 20.3216 39.3998 20.602 39.0425C20.8788 38.6726 21.1841 38.3769 21.518 38.1552C21.8565 37.9254 22.2328 37.8014 22.6469 37.7832C23.0611 37.7651 23.5261 37.897 24.0421 38.1791C24.5416 38.4523 24.9122 38.7666 25.1539 39.1222C25.4001 39.4696 25.545 39.8466 25.5885 40.2534C25.632 40.6601 25.5891 41.0888 25.4597 41.5393C25.3349 41.9816 25.1448 42.4362 24.8896 42.9029L23.526 45.3965ZM23.2112 44.0755L24.0173 42.6015C24.1874 42.2903 24.3326 41.9761 24.4529 41.6589C24.5695 41.329 24.6353 41.014 24.6506 40.7139C24.6621 40.401 24.5912 40.1123 24.4381 39.8477C24.2812 39.5704 24.0103 39.3266 23.6254 39.1161C23.2405 38.9057 22.8995 38.8096 22.6023 38.8279C22.305 38.8462 22.0383 38.945 21.8019 39.1243C21.5656 39.3035 21.3505 39.5316 21.1565 39.8085C20.967 40.0772 20.7895 40.363 20.6238 40.666L19.7842 42.2015L23.2112 44.0755ZM27.4487 38.2229L18.7643 33.4741L19.2479 32.5897L27.9323 37.3385L27.4487 38.2229Z" fill="white"/>
<path d="M30.2363 34.6096L23.2374 27.6106L23.9501 26.8979L27.2466 30.1944L28.4148 29.0263L27.4545 23.3934L28.2762 22.5718L29.2463 28.5511L35.2949 29.5509L34.4535 30.3924L29.1474 29.5806L27.8901 30.8379L30.9491 33.8968L30.2363 34.6096Z" fill="white"/>
<path d="M37.7779 27.8508L37.2835 27.0209C37.6523 26.8012 37.9428 26.5684 38.1549 26.3226C38.3669 26.0768 38.5142 25.8043 38.5968 25.5053C38.6746 25.1982 38.7053 24.8485 38.689 24.4563L31.5624 20.016L32.5848 19.407L38.6304 23.2364L37.6243 16.4048L38.5625 15.846L39.3462 21.6204C39.3869 21.8895 39.4323 22.2209 39.4823 22.6149C39.5275 23.0008 39.5638 23.4082 39.5913 23.8373C39.6187 24.2664 39.6198 24.6785 39.5946 25.0738C39.5773 25.4643 39.5227 25.8011 39.4305 26.0841C39.2949 26.4583 39.089 26.7873 38.8128 27.0714C38.5398 27.3426 38.1948 27.6025 37.7779 27.8508Z" fill="white"/>
<path d="M45.9162 23.3984L43.3273 13.845L50.7727 11.8273L53.3617 21.3807L52.3887 21.6444L50.0378 12.9693L44.5382 14.4596L46.8891 23.1347L45.9162 23.3984Z" fill="white"/>
<path d="M61.6513 20.765L66.9126 11.5799L68.2813 11.7978L70.4307 22.1625L69.3385 21.9887L68.8799 19.7042L63.8887 18.9097L62.7435 20.9389L61.6513 20.765ZM64.3636 18.0638L68.6773 18.7505L67.4426 12.6141L64.3636 18.0638Z" fill="white"/>
<path d="M72.3996 22.8024L76.4584 13.7749L79.5867 15.1814C80.0123 15.3727 80.3886 15.5828 80.7155 15.8117C81.0424 16.0405 81.3057 16.2971 81.5054 16.5813C81.7051 16.8655 81.8122 17.1848 81.8268 17.5393C81.8499 17.8976 81.762 18.2981 81.5629 18.7408C81.3371 19.243 81.0162 19.6155 80.6 19.8582C80.1924 20.1047 79.7224 20.2055 79.19 20.1606C79.7562 20.5175 80.1153 20.9706 80.2674 21.5199C80.4318 22.0646 80.3724 22.6519 80.0892 23.2818C79.8711 23.767 79.5914 24.1273 79.2502 24.3628C78.9213 24.5936 78.5487 24.7279 78.1325 24.766C77.7164 24.804 77.2825 24.7675 76.8309 24.6566C76.3794 24.5457 75.9237 24.3869 75.4641 24.1802L72.3996 22.8024ZM73.6921 22.3858L75.7989 23.333C76.0798 23.4593 76.3812 23.5743 76.7029 23.6781C77.0247 23.7818 77.3405 23.8419 77.6503 23.8584C77.9639 23.8664 78.2533 23.7918 78.5184 23.6347C78.7834 23.4776 79.0021 23.2075 79.1743 22.8244C79.3274 22.4839 79.388 22.1785 79.3559 21.9083C79.3239 21.6381 79.2241 21.3936 79.0563 21.175C78.9009 20.9516 78.6966 20.7574 78.4433 20.5924C78.2024 20.4226 77.9415 20.2746 77.6606 20.1483L75.1962 19.0403L73.6921 22.3858ZM75.5636 18.2231L77.4151 19.0556C77.73 19.1972 78.0456 19.3032 78.3618 19.3738C78.6866 19.4482 78.9945 19.4689 79.2855 19.436C79.5766 19.4032 79.8358 19.3048 80.063 19.1409C80.2987 18.9808 80.4912 18.7347 80.6404 18.4027C80.8318 17.9771 80.8755 17.6181 80.7716 17.3258C80.6676 17.0335 80.4735 16.7825 80.1891 16.5728C79.9133 16.3669 79.5924 16.1817 79.2263 16.0171L77.0046 15.0182L75.5636 18.2231Z" fill="white"/>
<path d="M83.5076 28.8729L89.0306 21.782L86.4681 19.7861L87.0273 19.0682L92.9474 23.6793L92.3883 24.3972L89.8258 22.4014L84.3028 29.4923L83.5076 28.8729Z" fill="white"/>
<path d="M90.9196 36.4106C90.2977 35.5938 89.952 34.7778 89.8826 33.9625C89.8188 33.1547 89.984 32.3779 90.378 31.6321C90.7777 30.8937 91.36 30.2333 92.1248 29.6509C92.8971 29.0628 93.6923 28.6744 94.5104 28.4855C95.3341 28.304 96.1269 28.3514 96.8887 28.6277C97.6561 28.9115 98.3508 29.4617 98.9728 30.2786C99.5947 31.0954 99.9376 31.9077 100.001 32.7155C100.065 33.5234 99.8971 34.2965 99.4974 35.0349C99.1034 35.7807 98.5203 36.4476 97.748 37.0357C96.9831 37.6181 96.1888 38 95.3651 38.1815C94.547 38.3704 93.757 38.3267 92.9953 38.0504C92.2335 37.774 91.5416 37.2275 90.9196 36.4106ZM91.6436 35.8594C92.1412 36.5128 92.6997 36.9381 93.319 37.1352C93.9383 37.3323 94.5731 37.3416 95.2232 37.1633C95.8865 36.9867 96.5189 36.6694 97.1204 36.2114C97.5733 35.8665 97.9551 35.482 98.2656 35.0579C98.5818 34.6411 98.8016 34.1981 98.9251 33.7286C99.0486 33.2592 99.0572 32.7775 98.951 32.2836C98.8504 31.7971 98.6163 31.3125 98.2488 30.8299C97.7568 30.1838 97.1947 29.7614 96.5623 29.5625C95.943 29.3654 95.2988 29.3515 94.6299 29.5206C93.9741 29.6915 93.3454 30.006 92.7439 30.464C92.1499 30.9163 91.6796 31.4387 91.3329 32.0311C90.9937 32.6179 90.8359 33.2425 90.8594 33.905C90.8903 34.5619 91.1517 35.2133 91.6436 35.8594Z" fill="white"/>
<path d="M102.798 53.1281C102.765 52.9161 102.802 52.7353 102.911 52.5857C103.019 52.4362 103.179 52.3445 103.391 52.3108C103.594 52.2785 103.77 52.3166 103.92 52.4251C104.069 52.5336 104.161 52.6938 104.195 52.9058C104.227 53.1086 104.19 53.2894 104.083 53.4482C103.976 53.607 103.821 53.7025 103.618 53.7348C103.406 53.7686 103.225 53.7266 103.073 53.6089C102.924 53.5004 102.832 53.3401 102.798 53.1281Z" fill="white"/>
</g>
</svg>
