<svg width="16" height="16" viewBox="0 0 16 16" fill="none" xmlns="http://www.w3.org/2000/svg">
<path fill-rule="evenodd" clip-rule="evenodd" d="M16 8.02857C15.9588 8.70048 15.8665 9.36528 15.7259 10.023C15.6934 10.1186 15.6614 10.2144 15.6293 10.3103C15.5567 10.5278 15.4839 10.7458 15.4048 10.9609C15.1702 11.5999 14.8216 12.1773 14.4286 12.7297C14.0024 13.3297 13.4715 13.8297 12.9229 14.3129C12.8905 14.3416 12.852 14.3634 12.8135 14.3852C12.7962 14.3951 12.7787 14.405 12.7619 14.4155C12.7024 14.4603 12.643 14.5052 12.584 14.55L12.5646 14.568L12.5348 14.5958C12.4623 14.6381 12.39 14.6807 12.3177 14.7233C12.1608 14.8158 12.0039 14.9083 11.8451 14.9977C11.0486 15.4471 10.1917 15.7189 9.29665 15.8912C9.0657 15.9356 8.83435 15.9516 8.603 15.9677C8.49403 15.9753 8.38504 15.9828 8.27611 15.9933C8.22333 15.9796 8.171 15.9765 8.11999 16L7.83126 15.9982L7.7634 15.996C6.87193 15.9756 6.01017 15.8019 5.17636 15.4875C5.16424 15.4829 5.15175 15.4789 5.13927 15.4749C5.11064 15.4657 5.08203 15.4565 5.05794 15.4404C4.69957 15.2029 4.31815 15.2313 3.91942 15.3134C3.16503 15.4688 2.40875 15.616 1.65247 15.7631C1.37144 15.8178 1.0904 15.8725 0.809464 15.9276C0.78173 15.9331 0.754208 15.94 0.726684 15.9469C0.648573 15.9665 0.570439 15.9861 0.487469 15.972L0.431142 15.841L0.697254 13.8883C0.720328 13.7288 0.743519 13.5693 0.766708 13.4098C0.833975 12.9471 0.901283 12.4842 0.965583 12.0209C0.979332 11.9215 0.978445 11.8224 0.929658 11.7221C0.818614 11.4952 0.713444 11.265 0.608334 11.0349C0.569059 10.949 0.529692 10.8628 0.49013 10.777C0.264822 10.0803 0.107373 9.37239 0.0310875 8.63964C-0.0221348 8.12982 -0.000402346 7.628 0.0466107 7.12662C0.0860839 6.7034 0.162813 6.28063 0.294982 5.87207C0.302252 5.84932 0.301039 5.82408 0.299822 5.79877C0.299258 5.78702 0.298692 5.77525 0.298973 5.76371C0.636491 4.70366 1.15674 3.74088 1.84641 2.86957C1.86796 2.84222 1.89262 2.81717 1.91726 2.79212C1.92864 2.78056 1.94002 2.769 1.95108 2.75721C2.00687 2.72595 2.03566 2.67409 2.06445 2.62227C2.08349 2.58797 2.10253 2.55369 2.12938 2.5254L2.5281 2.12572C2.56894 2.08769 2.61524 2.05594 2.66154 2.02418C2.74448 1.9673 2.82741 1.91042 2.87893 1.81752L2.98315 1.72115C3.17351 1.61704 3.35194 1.49479 3.53051 1.37244C3.7031 1.25419 3.87582 1.13584 4.05957 1.0337C4.80868 0.616697 5.59326 0.31516 6.4395 0.165945C6.97971 0.071798 7.52169 -0.016132 8.07121 0.00251982C9.35874 0.0460407 10.5864 0.331147 11.7329 0.939107C11.918 1.0371 12.0952 1.14694 12.2724 1.25678C12.361 1.3117 12.4496 1.36662 12.5392 1.42006C12.5576 1.46787 12.5758 1.45174 12.5939 1.43567C12.6029 1.42771 12.6119 1.41976 12.6208 1.41961C12.7104 1.57067 12.8472 1.66854 12.9839 1.76637C13.061 1.82155 13.1381 1.87672 13.2067 1.94142C14.0405 2.6835 14.7236 3.53926 15.2003 4.55534C15.5343 5.26677 15.7623 6.00707 15.8696 6.78734C15.9264 7.20034 15.9703 7.61335 16 8.02857ZM2.07749 14.1193L2.09077 14.0183C2.16275 14.0879 2.23959 14.1547 2.3216 14.2185L2.21719 14.2396C2.11474 14.2605 2.06241 14.2339 2.07749 14.1193ZM3.48133 6.29663C3.48065 6.33037 3.47996 6.36412 3.47915 6.39787L3.47822 6.39658C3.48027 6.40019 3.48232 6.40378 3.48436 6.40735C3.50685 6.44676 3.52851 6.48469 3.53574 6.53273C3.58026 6.82262 3.66839 7.10264 3.81496 7.36247C4.38731 8.3786 5.06912 9.3213 5.97636 10.1115C6.03653 10.1592 6.09597 10.2075 6.15538 10.2559C6.28511 10.3615 6.4147 10.467 6.55149 10.5642C7.29963 11.0959 8.15445 11.4304 9.04359 11.6946C9.52087 11.8363 10.0144 11.89 10.4953 11.7203C11.4944 11.3682 11.7959 10.9988 11.8251 10.0115L11.826 10.0123L11.7356 9.926C11.6799 9.89758 11.6244 9.86865 11.5689 9.83972C11.4466 9.77598 11.3243 9.7122 11.199 9.65371C11.0458 9.58235 10.8976 9.50232 10.7493 9.42228C10.4907 9.28268 10.2321 9.14307 9.94758 9.04944C9.75741 8.98674 9.62012 8.99962 9.4819 9.17829C9.31645 9.39173 9.11379 9.58135 8.91246 9.76972C8.88126 9.79891 8.85009 9.82807 8.81911 9.85728C8.7217 9.94919 8.59323 10.0007 8.44573 9.93416C7.71893 9.60475 7.05288 9.19418 6.52227 8.62298C6.22079 8.29872 5.92997 7.96159 5.74955 7.55874C5.66838 7.50634 5.63452 7.42861 5.61597 7.34314C5.53794 7.20326 5.62415 7.13864 5.71041 7.07399C5.74465 7.04832 5.7789 7.02265 5.80289 6.99226C5.83721 6.93944 5.87895 6.89348 5.94203 6.86857C5.96499 6.8471 5.98795 6.82552 6.01091 6.80394C6.03387 6.78236 6.05683 6.76078 6.07979 6.7393L6.08769 6.7312C6.11527 6.70291 6.14318 6.67429 6.1707 6.64568C6.1693 6.58212 6.21476 6.54776 6.26439 6.51598C6.27313 6.49169 6.2825 6.46779 6.29182 6.44404C6.34278 6.31404 6.39196 6.18863 6.32608 6.03067C6.1489 5.60549 5.9963 5.17086 5.84741 4.73581C5.69528 4.29087 5.61597 4.22173 5.15632 4.20068C5.09146 4.20572 5.02841 4.197 4.96477 4.1882C4.87094 4.17523 4.77582 4.16207 4.67163 4.19252C4.48453 4.24689 4.35011 4.35728 4.21558 4.46775C4.16202 4.51174 4.10843 4.55574 4.0515 4.59623C4.00395 4.67517 3.95205 4.75166 3.90016 4.82815C3.79564 4.98219 3.69112 5.13625 3.62201 5.31044C3.49482 5.63215 3.48809 5.96377 3.48133 6.29663Z" fill="#DAD3CB"/>
</svg>
