<svg width="16" height="13" viewBox="0 0 16 13" fill="none" xmlns="http://www.w3.org/2000/svg">
<path d="M3.93313 7.9266C3.61335 7.92111 3.34112 7.88604 3.07456 7.81482C2.38085 7.62955 1.69813 7.41125 1.0136 7.19833C0.784293 7.127 0.554984 7.05513 0.327487 6.97864C0.109048 6.90526 -0.0402008 6.65555 0.0096244 6.45479C0.0328384 6.3614 0.0884388 6.28512 0.158081 6.21734C0.338358 6.04176 0.560986 5.92739 0.795051 5.83487C1.6132 5.51113 2.4334 5.19181 3.25291 4.8712C4.85037 4.24632 6.44806 3.62221 8.0453 2.99679C8.85439 2.68005 9.6653 2.36729 10.4705 2.04184C11.8415 1.48776 13.2203 0.951539 14.5982 0.413383C14.8376 0.319888 15.0884 0.272657 15.3496 0.289118C15.7953 0.317199 15.9753 0.584233 15.9972 0.941319C16.0076 1.11023 15.9874 1.27785 15.9647 1.44515C15.8313 2.42615 15.663 3.40219 15.5044 4.37952C15.4062 4.98513 15.3113 5.59118 15.2098 6.19626C15.1679 6.44586 15.1191 6.69504 15.079 6.94453C15.0324 7.23448 14.9843 7.52454 14.9378 7.81471C14.8779 8.18965 14.8194 8.56503 14.7488 8.93825C14.7117 9.1346 14.6791 9.33203 14.6468 9.52859C14.5991 9.81865 14.5515 10.1088 14.5041 10.399C14.4395 10.7955 14.3733 11.192 14.3023 11.5875C14.2727 11.7525 14.2682 11.9215 14.2115 12.0828C14.161 12.2266 14.1017 12.3654 14.0099 12.4897C13.8051 12.7676 13.5218 12.8837 13.1688 12.8523C12.8718 12.826 12.5955 12.732 12.326 12.617C11.9943 12.4754 11.6897 12.2907 11.3886 12.0982C10.7687 11.702 10.1412 11.3166 9.52069 10.9212C8.84058 10.4878 8.16443 10.049 7.52032 9.56743C7.44615 9.51202 7.37289 9.45543 7.30098 9.39755C7.20801 9.32277 7.13124 9.23498 7.07212 9.13331C6.95322 8.929 6.95186 8.72351 7.06216 8.51618C7.13327 8.38256 7.24062 8.27723 7.35488 8.17706C8.58115 7.10258 9.79711 6.01766 10.9905 4.91014C11.2012 4.71476 11.4107 4.51831 11.6189 4.32067C11.7828 4.1651 11.9235 3.99285 12.0219 3.79209C12.0539 3.72689 12.0819 3.66051 12.0853 3.58713C12.0907 3.47201 12.0402 3.41994 11.9201 3.41929C11.8358 3.41876 11.756 3.44135 11.6781 3.46889C11.4436 3.55173 11.2261 3.66707 11.0139 3.79112C10.5798 4.04492 10.1675 4.32981 9.74683 4.60266C8.52204 5.39698 7.29294 6.18528 6.0575 6.96465C5.69287 7.19468 5.32326 7.41792 4.96452 7.65601C4.72015 7.81815 4.45018 7.8898 4.16109 7.91563C4.07106 7.92369 3.98036 7.92434 3.93291 7.92649L3.93313 7.9266Z" fill="#DAD3CB"/>
</svg>
