<svg width="16" height="16" viewBox="0 0 16 16" fill="none" xmlns="http://www.w3.org/2000/svg">
<path d="M3.93313 9.9266C3.61335 9.92111 3.34112 9.88604 3.07456 9.81482C2.38085 9.62955 1.69813 9.41125 1.0136 9.19833C0.784293 9.127 0.554984 9.05513 0.327487 8.97864C0.109048 8.90526 -0.0402008 8.65555 0.0096244 8.45479C0.0328384 8.3614 0.0884388 8.28512 0.158081 8.21734C0.338358 8.04176 0.560986 7.92739 0.795051 7.83487C1.6132 7.51113 2.4334 7.19181 3.25291 6.8712C4.85037 6.24632 6.44806 5.62221 8.0453 4.99679C8.85439 4.68005 9.6653 4.36729 10.4705 4.04184C11.8415 3.48776 13.2203 2.95154 14.5982 2.41338C14.8376 2.31989 15.0884 2.27266 15.3496 2.28912C15.7953 2.3172 15.9753 2.58423 15.9972 2.94132C16.0076 3.11023 15.9874 3.27785 15.9647 3.44515C15.8313 4.42615 15.663 5.40219 15.5044 6.37952C15.4062 6.98513 15.3113 7.59118 15.2098 8.19626C15.1679 8.44586 15.1191 8.69504 15.079 8.94453C15.0324 9.23448 14.9843 9.52454 14.9378 9.81471C14.8779 10.1897 14.8194 10.565 14.7488 10.9383C14.7117 11.1346 14.6791 11.332 14.6468 11.5286C14.5991 11.8186 14.5515 12.1088 14.5041 12.399C14.4395 12.7955 14.3733 13.192 14.3023 13.5875C14.2727 13.7525 14.2682 13.9215 14.2115 14.0828C14.161 14.2266 14.1017 14.3654 14.0099 14.4897C13.8051 14.7676 13.5218 14.8837 13.1688 14.8523C12.8718 14.826 12.5955 14.732 12.326 14.617C11.9943 14.4754 11.6897 14.2907 11.3886 14.0982C10.7687 13.702 10.1412 13.3166 9.52069 12.9212C8.84058 12.4878 8.16443 12.049 7.52032 11.5674C7.44615 11.512 7.37289 11.4554 7.30098 11.3975C7.20801 11.3228 7.13124 11.235 7.07212 11.1333C6.95322 10.929 6.95186 10.7235 7.06216 10.5162C7.13327 10.3826 7.24062 10.2772 7.35488 10.1771C8.58115 9.10258 9.79711 8.01766 10.9905 6.91014C11.2012 6.71476 11.4107 6.51831 11.6189 6.32067C11.7828 6.1651 11.9235 5.99285 12.0219 5.79209C12.0539 5.72689 12.0819 5.66051 12.0853 5.58713C12.0907 5.47201 12.0402 5.41994 11.9201 5.41929C11.8358 5.41876 11.756 5.44135 11.6781 5.46889C11.4436 5.55173 11.2261 5.66707 11.0139 5.79112C10.5798 6.04492 10.1675 6.32981 9.74683 6.60266C8.52204 7.39698 7.29294 8.18528 6.0575 8.96465C5.69287 9.19468 5.32326 9.41792 4.96452 9.65601C4.72015 9.81815 4.45018 9.8898 4.16109 9.91563C4.07106 9.92369 3.98036 9.92434 3.93291 9.92649L3.93313 9.9266Z" fill="#BC8431"/>
</svg>
