<svg width="94" height="26" viewBox="0 0 94 26" fill="none" xmlns="http://www.w3.org/2000/svg">
<path d="M8.60983 4.82817C10.7158 4.49128 12.8027 4.21907 14.865 3.8175C20.4154 2.73945 25.9467 1.56977 31.4971 0.505194C38.2549 -0.793855 44.5811 0.448597 50.5221 3.8148C52.8002 5.10307 55.0864 6.37786 57.4137 7.57719C58.0064 7.88174 58.774 8.01111 59.4514 7.98416C70.5905 7.56641 81.5356 8.68758 92.2349 11.8651C92.4289 11.9217 92.6201 11.9864 92.8359 12.2478C92.2377 12.3152 91.6395 12.3961 91.0413 12.45C90.4349 12.5039 89.8285 12.5335 89.08 12.582C89.4706 13.1615 89.8339 13.6277 90.118 14.1398C90.5714 14.9537 90.3092 15.482 89.375 15.4955C88.602 15.5062 87.7716 15.4496 87.0587 15.1855C84.1278 14.0967 81.2324 12.9162 78.3288 11.7654C78.2496 11.7331 78.2004 11.6334 77.9846 11.3989C79.2248 11.2965 80.3064 11.2048 81.3908 11.1159C81.4072 11.035 81.4236 10.9569 81.44 10.876C80.4075 10.6415 79.3832 10.3505 78.337 10.178C72.1884 9.17271 66.0043 8.67141 59.7792 9.13767C58.4899 9.23469 57.4847 9.0649 56.3784 8.348C51.6365 5.27286 46.5669 2.89577 40.9154 1.94439C32.8192 0.580658 25.455 2.08993 19.0852 7.44513C18.8147 7.67152 18.4351 7.91678 18.11 7.90869C14.6929 7.81975 11.5271 6.90611 8.70543 4.94945C8.63168 4.89824 8.59071 4.79852 8.61256 4.82817H8.60983ZM16.3181 4.51554C15.3184 4.51554 14.2996 4.06006 13.5702 5.1408C14.5208 5.63401 15.8374 5.3645 16.3181 4.51554Z" fill="#BC8431"/>
<path d="M43.3135 12.5902C39.5768 13.9674 35.7609 14.4875 31.8221 14.3097C25.526 14.024 19.5248 12.3099 13.4964 10.7063C10.306 9.85733 7.12106 8.94099 3.76404 8.95716C3.75585 8.87091 3.75038 8.78467 3.74219 8.69842C5.14345 8.54211 6.54198 8.28877 7.94871 8.24564C11.4286 8.13784 14.7884 8.93829 18.1482 9.7037C25.1463 11.2965 32.21 12.4204 39.4075 12.5848C40.6995 12.6144 41.9942 12.5902 43.3108 12.5902H43.3135ZM9.54937 9.21319C10.4726 9.19702 11.5133 10.1349 12.4502 8.99758C11.4177 9.07305 10.4835 9.14312 9.54937 9.21319Z" fill="#BC8431"/>
<path d="M63.792 16.3686C65.3408 14.4982 67.2337 13.4875 69.4244 13.1156C74.2318 12.2963 78.4192 13.8487 82.2433 16.6219C82.2816 16.6516 82.2898 16.7244 82.3362 16.8376C76.2422 14.6491 70.1373 14.0535 63.792 16.3686Z" fill="#BC8431"/>
<path d="M90.9927 24.1199C91.6291 20.5488 92.4977 17.0937 91.3287 13.6358C91.4379 13.5631 91.4625 13.5307 91.4898 13.528C93.8744 13.1588 93.9837 13.2504 94.0001 15.6248C94.0192 18.4143 92.6015 22.5136 90.9927 24.1199Z" fill="#BC8431"/>
<path d="M8.75757 11.9191C6.87283 11.2291 4.9799 10.9812 3.04053 11.3369C5.43333 10.6551 7.77423 11.0459 10.4183 11.717C8.31234 13.1427 6.31287 13.6521 4.08396 13.1831C4.30248 13.1831 4.57563 13.202 4.73679 13.1831C6.01241 13.051 6.90015 12.6144 7.65131 12.2425C8.19761 11.973 8.06104 12.1401 8.7603 11.9191H8.75757Z" fill="#BC8431"/>
<path d="M6.33382 19.5489L4.43925 22.188C4.34637 22.3224 4.24422 22.4293 4.13277 22.5087C4.02752 22.5881 3.92536 22.6492 3.8263 22.692L3.81701 22.7286C3.8975 22.7714 3.98108 22.8539 4.06776 22.9761C4.15444 23.0921 4.22564 23.2113 4.28136 23.3334L5.49798 25.8717H3.61269L2.25677 22.6187L4.38352 19.5489H6.33382ZM2.65612 19.5489L2.39608 21.3541C2.37131 21.5618 2.32488 21.7726 2.25677 21.9864C2.18867 22.2002 2.0927 22.411 1.96887 22.6187C2.02459 22.802 2.05865 23.0005 2.07103 23.2143C2.08341 23.422 2.07722 23.6144 2.05245 23.7916L1.75527 25.8717H0L0.900851 19.5489H2.65612ZM2.87901 22.0139L2.72113 23.1593H1.62525L1.78313 22.0139H2.87901Z" fill="#BC8431"/>
<path d="M12.3181 19.5489L11.7702 23.3334C11.6773 23.9932 11.5225 24.5186 11.3058 24.9095C11.0891 25.2944 10.7796 25.5724 10.3771 25.7434C9.98088 25.9145 9.4608 26 8.81689 26C8.18537 26 7.67148 25.9114 7.27523 25.7342C6.88517 25.551 6.61275 25.2608 6.45796 24.8637C6.30318 24.4605 6.26912 23.9291 6.3558 23.2693L6.89446 19.5489H8.64044L8.0925 23.3334C8.04296 23.6816 8.02749 23.9565 8.04606 24.1581C8.07083 24.3536 8.14512 24.4911 8.26895 24.5705C8.39897 24.6499 8.59091 24.6896 8.84475 24.6896C9.11098 24.6896 9.32149 24.6469 9.47628 24.5613C9.63106 24.4758 9.7487 24.3292 9.82919 24.1215C9.90968 23.9138 9.98088 23.6297 10.0428 23.2693L10.5722 19.5489H12.3181Z" fill="#BC8431"/>
<path d="M15.8694 19.4573C16.4885 19.4573 16.9776 19.5245 17.3367 19.6589C17.6958 19.7872 17.9373 20.0102 18.0611 20.3278C18.1912 20.6455 18.2159 21.0823 18.1354 21.6382C18.0611 22.1819 17.9342 22.6004 17.7547 22.8936C17.5751 23.1868 17.3182 23.3915 16.9838 23.5075C16.6495 23.6175 16.2099 23.6725 15.6651 23.6725C15.3679 23.6725 15.0738 23.6572 14.7828 23.6267C14.4918 23.5961 14.2225 23.5595 13.9748 23.5167C13.7271 23.4678 13.5166 23.419 13.3433 23.3701C13.1699 23.3151 13.0492 23.2662 12.9811 23.2235L13.0368 22.4354C13.4392 22.4354 13.8541 22.4354 14.2813 22.4354C14.7085 22.4354 15.1202 22.4354 15.5165 22.4354C15.7208 22.4354 15.8787 22.414 15.9901 22.3713C16.1077 22.3285 16.1975 22.243 16.2594 22.1147C16.3275 21.9803 16.3802 21.7787 16.4173 21.5099C16.4483 21.3022 16.4514 21.1403 16.4266 21.0243C16.4018 20.9082 16.3399 20.8257 16.2409 20.7768C16.148 20.728 16.0087 20.7035 15.8229 20.7035C15.2162 20.7035 14.6992 20.7096 14.272 20.7219C13.8448 20.728 13.5569 20.7371 13.4083 20.7493L13.3804 19.5489C13.6467 19.5184 13.8943 19.497 14.1234 19.4848C14.3587 19.4726 14.6125 19.4665 14.8849 19.4665C15.1574 19.4604 15.4855 19.4573 15.8694 19.4573ZM15.1171 19.5489L14.2163 25.8717H12.4796L13.3804 19.5489H15.1171Z" fill="#BC8431"/>
<path d="M20.949 19.5489L20.0481 25.8717H18.3022L19.203 19.5489H20.949Z" fill="#BC8431"/>
<path d="M28.8024 19.5489C29.0067 19.5489 29.1584 19.607 29.2574 19.723C29.3627 19.833 29.406 19.9888 29.3874 20.1904L28.8024 25.8717H27.2235L27.7436 20.8501H27.6043L26.2948 24.433C26.2391 24.6102 26.1524 24.7385 26.0348 24.8179C25.9233 24.8912 25.7717 24.9279 25.5797 24.9279H24.6231C24.4374 24.9279 24.2888 24.879 24.1774 24.7813C24.0721 24.6835 24.0102 24.5461 23.9916 24.3689L23.6759 20.8501H23.518L22.6357 25.8717H21.0476L22.097 20.1262C22.1342 19.9246 22.2023 19.778 22.3014 19.6864C22.4004 19.5948 22.549 19.5489 22.7471 19.5489H24.2702C24.456 19.5489 24.6015 19.5978 24.7067 19.6956C24.8182 19.7933 24.877 19.9338 24.8832 20.1171L25.1246 22.9302C25.1432 23.083 25.1494 23.2357 25.1432 23.3884C25.1432 23.5411 25.1401 23.6969 25.1339 23.8557H25.2454C25.2887 23.6847 25.3321 23.5289 25.3754 23.3884C25.4187 23.2418 25.4621 23.0952 25.5054 22.9486L26.5084 20.0529C26.558 19.8758 26.6415 19.7475 26.7592 19.6681C26.8768 19.5887 27.0285 19.5489 27.2143 19.5489H28.8024Z" fill="#BC8431"/>
<path d="M34.0093 19.5489C34.1455 19.5489 34.2663 19.5948 34.3715 19.6864C34.483 19.778 34.548 19.891 34.5665 20.0254L35.4767 25.8717H33.7307L33.2663 21.4916C33.254 21.3755 33.2447 21.2625 33.2385 21.1525C33.2385 21.0426 33.2385 20.9326 33.2385 20.8227H32.9784C32.9537 20.9143 32.9258 21.0181 32.8949 21.1342C32.8639 21.2503 32.8237 21.3633 32.7741 21.4733L31.0189 25.8717H29.2079L31.7897 19.9613C31.8392 19.8269 31.9166 19.7261 32.0219 19.6589C32.1333 19.5856 32.2602 19.5489 32.4026 19.5489H34.0093ZM34.3994 23.1135L34.2508 24.3872H30.9074L31.0653 23.1135H34.3994Z" fill="#BC8431"/>
<path d="M39.0619 19.4207C39.4086 19.4268 39.7739 19.4512 40.1577 19.494C40.5478 19.5367 40.9162 19.6131 41.2629 19.723L41.1143 20.8318C40.9224 20.8257 40.7057 20.8227 40.4642 20.8227C40.2228 20.8165 39.9751 20.8135 39.7213 20.8135C39.4674 20.8074 39.2136 20.8043 38.9597 20.8043C38.8297 20.8043 38.7151 20.8104 38.6161 20.8227C38.5232 20.8288 38.4427 20.8471 38.3746 20.8776C38.3127 20.9021 38.2632 20.9418 38.226 20.9968C38.1889 21.0517 38.161 21.125 38.1424 21.2167C38.1362 21.2961 38.1424 21.3664 38.161 21.4274C38.1796 21.4885 38.2229 21.5435 38.291 21.5924C38.3653 21.6413 38.4706 21.6993 38.6068 21.7665L39.7213 22.2613C40.068 22.414 40.328 22.579 40.5014 22.7561C40.6809 22.9333 40.7955 23.1379 40.845 23.3701C40.9007 23.6022 40.91 23.8741 40.8729 24.1856C40.8109 24.6621 40.6871 25.0317 40.5014 25.2944C40.3218 25.5571 40.0525 25.7404 39.6934 25.8442C39.3343 25.9481 38.8575 26 38.2632 26C38.0093 26 37.6688 25.9786 37.2416 25.9358C36.8144 25.8992 36.3624 25.8228 35.8857 25.7068L36.0528 24.5063C36.4119 24.5125 36.7339 24.5216 37.0187 24.5338C37.3097 24.5399 37.5543 24.5461 37.7524 24.5522C37.9505 24.5522 38.0929 24.5522 38.1796 24.5522C38.4087 24.5522 38.5882 24.5399 38.7182 24.5155C38.8545 24.4911 38.9535 24.4483 39.0154 24.3872C39.0835 24.32 39.1269 24.2314 39.1455 24.1215C39.164 24.0237 39.164 23.9474 39.1455 23.8924C39.1269 23.8374 39.0866 23.7885 39.0247 23.7458C38.9628 23.703 38.8761 23.6572 38.7647 23.6083L37.5666 23.0677C37.2261 22.9028 36.9661 22.7256 36.7865 22.5362C36.6132 22.3468 36.5017 22.1391 36.4522 21.9131C36.4027 21.681 36.3934 21.4305 36.4243 21.1617C36.4677 20.8135 36.5512 20.5264 36.6751 20.3003C36.8051 20.0743 36.9754 19.9002 37.1859 19.778C37.4026 19.6497 37.6657 19.5581 37.9753 19.5031C38.291 19.4481 38.6532 19.4207 39.0619 19.4207Z" fill="#BC8431"/>
<path d="M44.1215 19.5489L43.2206 25.8717H41.4746L42.3755 19.5489H44.1215ZM45.7467 21.8856L45.561 23.141H43.5457L43.7128 21.8856H45.7467ZM47.7249 19.5489L46.824 25.8717H45.078L45.9789 19.5489H47.7249Z" fill="#BC8431"/>
<path d="M50.588 19.5489L49.6871 25.8717H47.9412L48.842 19.5489H50.588Z" fill="#BC8431"/>
<path d="M57.3083 19.5489L56.491 25.3036C56.4663 25.4991 56.4013 25.6426 56.296 25.7342C56.197 25.8259 56.0484 25.8717 55.8502 25.8717H55.163C54.9772 25.8717 54.8441 25.8259 54.7636 25.7342C54.6832 25.6365 54.6058 25.5021 54.5315 25.3311L53.3241 22.637C53.256 22.4965 53.1972 22.3407 53.1477 22.1697C53.0981 21.9986 53.0548 21.8245 53.0177 21.6474H52.9248C52.931 21.8306 52.9279 22.0139 52.9155 22.1972C52.9093 22.3743 52.8938 22.5576 52.8691 22.747L52.414 25.8717H50.798L51.6153 20.1171C51.6401 19.9216 51.702 19.778 51.801 19.6864C51.9063 19.5948 52.058 19.5489 52.2561 19.5489H52.9434C53.1229 19.5489 53.2529 19.5978 53.3334 19.6956C53.4139 19.7933 53.4913 19.9246 53.5656 20.0896L54.7451 22.6645C54.8132 22.8172 54.8782 22.9791 54.9401 23.1502C55.0082 23.3212 55.067 23.5106 55.1165 23.7183H55.2187C55.2063 23.5228 55.2001 23.3457 55.2001 23.1868C55.2063 23.0219 55.2218 22.8539 55.2466 22.6828L55.7016 19.5489H57.3083Z" fill="#BC8431"/>
<path d="M63.7873 19.5489L63.2394 23.3334C63.1465 23.9932 62.9917 24.5186 62.775 24.9095C62.5583 25.2944 62.2487 25.5724 61.8463 25.7434C61.4501 25.9145 60.93 26 60.2861 26C59.6545 26 59.1407 25.9114 58.7444 25.7342C58.3543 25.551 58.0819 25.2608 57.9271 24.8637C57.7724 24.4605 57.7383 23.9291 57.825 23.2693L58.3636 19.5489H60.1096L59.5617 23.3334C59.5121 23.6816 59.4967 23.9565 59.5152 24.1581C59.54 24.3536 59.6143 24.4911 59.7381 24.5705C59.8681 24.6499 60.0601 24.6896 60.3139 24.6896C60.5802 24.6896 60.7907 24.6469 60.9455 24.5613C61.1002 24.4758 61.2179 24.3292 61.2984 24.1215C61.3789 23.9138 61.4501 23.6297 61.512 23.2693L62.0413 19.5489H63.7873Z" fill="#BC8431"/>
<path d="M64.9146 24.3139C65.1065 24.3139 65.252 24.3658 65.3511 24.4697C65.4564 24.5674 65.4966 24.7171 65.4718 24.9187L65.4068 25.3311C65.3883 25.5143 65.3263 25.6518 65.2211 25.7434C65.122 25.8289 64.9703 25.8717 64.766 25.8717H64.4224C63.9952 25.8717 63.8063 25.6701 63.8559 25.2669L63.9116 24.8546C63.9673 24.4941 64.184 24.3139 64.5617 24.3139H64.9146Z" fill="#BC8431"/>
<path d="M69.6705 19.439C69.9863 19.439 70.2587 19.4481 70.4878 19.4665C70.7168 19.4848 70.9273 19.5123 71.1193 19.5489C71.3112 19.5795 71.5032 19.6222 71.6951 19.6772L71.4908 20.9326C71.2741 20.9204 71.0728 20.9143 70.8871 20.9143C70.7014 20.9082 70.5063 20.9051 70.302 20.9051C70.1039 20.899 69.8655 20.896 69.5869 20.896C69.3888 20.896 69.2216 20.9204 69.0854 20.9693C68.9492 21.012 68.8316 21.0976 68.7325 21.2258C68.6396 21.3541 68.5591 21.5435 68.491 21.794C68.4229 22.0444 68.3641 22.3713 68.3146 22.7745C68.2465 23.2387 68.2155 23.5992 68.2217 23.8557C68.2341 24.1062 68.2991 24.2803 68.4167 24.3781C68.5406 24.4758 68.7356 24.5247 69.0018 24.5247C69.4538 24.5247 69.8284 24.5186 70.1256 24.5063C70.4227 24.488 70.7168 24.4666 71.0078 24.4422L71.0728 25.7068C70.7447 25.8045 70.4197 25.8748 70.0977 25.9175C69.7757 25.9603 69.3857 25.9817 68.9275 25.9817C68.2403 25.9817 67.6985 25.8748 67.3023 25.6609C66.906 25.4471 66.6429 25.0959 66.5129 24.6071C66.3829 24.1184 66.3767 23.4648 66.4943 22.6462C66.5872 22.017 66.7079 21.4946 66.8565 21.0792C67.0051 20.6638 67.2001 20.337 67.4416 20.0987C67.683 19.8605 67.9864 19.6925 68.3517 19.5948C68.717 19.4909 69.1566 19.439 69.6705 19.439Z" fill="#BC8431"/>
<path d="M75.1031 19.4207C75.778 19.4207 76.3228 19.5215 76.7376 19.723C77.1525 19.9246 77.4342 20.2667 77.5828 20.7493C77.7313 21.232 77.7468 21.907 77.6292 22.7745C77.5425 23.4159 77.4187 23.9474 77.2577 24.3689C77.0967 24.7843 76.8893 25.1111 76.6355 25.3494C76.3878 25.5876 76.0813 25.7556 75.716 25.8534C75.3508 25.9511 74.9204 26 74.4251 26C73.7255 26 73.1714 25.8992 72.7627 25.6976C72.3541 25.496 72.0817 25.1539 71.9455 24.6713C71.8155 24.1826 71.8093 23.5075 71.9269 22.6462C72.0198 22.017 72.1436 21.4946 72.2984 21.0792C72.4594 20.6577 72.6637 20.3278 72.9113 20.0896C73.159 19.8452 73.4624 19.6742 73.8215 19.5764C74.1806 19.4726 74.6078 19.4207 75.1031 19.4207ZM75.0752 20.731C74.8028 20.731 74.583 20.786 74.4158 20.896C74.2549 21.0059 74.1248 21.2075 74.0258 21.5007C73.9329 21.794 73.8431 22.2186 73.7565 22.7745C73.676 23.2937 73.6419 23.6908 73.6543 23.9657C73.6729 24.2406 73.7472 24.43 73.8772 24.5338C74.0072 24.6377 74.2053 24.6896 74.4716 24.6896C74.7502 24.6896 74.97 24.6346 75.131 24.5247C75.2919 24.4147 75.422 24.2131 75.521 23.9199C75.6201 23.6206 75.713 23.196 75.7996 22.6462C75.8801 22.1269 75.9111 21.7298 75.8925 21.4549C75.8739 21.18 75.7996 20.9907 75.6696 20.8868C75.5396 20.7829 75.3415 20.731 75.0752 20.731Z" fill="#BC8431"/>
<path d="M85.7404 19.5489C85.9447 19.5489 86.0964 19.607 86.1955 19.723C86.3007 19.833 86.3441 19.9888 86.3255 20.1904L85.7404 25.8717H84.1616L84.6817 20.8501H84.5424L83.2329 24.433C83.1772 24.6102 83.0905 24.7385 82.9728 24.8179C82.8614 24.8912 82.7097 24.9279 82.5178 24.9279H81.5612C81.3755 24.9279 81.2269 24.879 81.1154 24.7813C81.0102 24.6835 80.9482 24.5461 80.9297 24.3689L80.6139 20.8501H80.456L79.5738 25.8717H77.9857L79.0351 20.1262C79.0723 19.9246 79.1404 19.778 79.2394 19.6864C79.3385 19.5948 79.4871 19.5489 79.6852 19.5489H81.2083C81.394 19.5489 81.5395 19.5978 81.6448 19.6956C81.7562 19.7933 81.815 19.9338 81.8212 20.1171L82.0627 22.9302C82.0813 23.083 82.0875 23.2357 82.0813 23.3884C82.0813 23.5411 82.0782 23.6969 82.072 23.8557H82.1834C82.2268 23.6847 82.2701 23.5289 82.3135 23.3884C82.3568 23.2418 82.4001 23.0952 82.4435 22.9486L83.4465 20.0529C83.496 19.8758 83.5796 19.7475 83.6972 19.6681C83.8149 19.5887 83.9666 19.5489 84.1523 19.5489H85.7404Z" fill="#BC8431"/>
</svg>
