<svg width="24" height="24" viewBox="0 0 24 24" fill="none" xmlns="http://www.w3.org/2000/svg">
<path d="M0 10.4212V7.80283C0 7.38617 0.158035 6.98657 0.43934 6.69194C0.720644 6.39731 1.10218 6.23179 1.5 6.23179C1.5 6.23179 2.459 6.23179 2.5 6.23179C3.11875 4.79159 3.85024 3.40749 4.687 2.09367C5.18664 1.4132 5.879 0.915711 6.665 0.672405C8.426 -0.224135 15.574 -0.224135 17.335 0.672405C18.121 0.915711 18.8134 1.4132 19.313 2.09367C20.1498 3.40749 20.8813 4.79159 21.5 6.23179C21.541 6.23179 22.5 6.23179 22.5 6.23179C22.8978 6.23179 23.2794 6.39731 23.5607 6.69194C23.842 6.98657 24 7.38617 24 7.80283V10.4212C20.0266 9.7939 16.0177 9.444 12 9.37388C7.98226 9.444 3.97341 9.7939 0 10.4212ZM24 12.54V14.6107C24 15.7218 23.5786 16.7874 22.8284 17.5731C22.0783 18.3587 21.0609 18.8001 20 18.8001H4C2.93913 18.8001 1.92172 18.3587 1.17157 17.5731C0.421427 16.7874 0 15.7218 0 14.6107V12.5442C3.97288 11.908 7.98168 11.5487 12 11.4686C16.0183 11.5487 20.0271 11.908 24 12.5442V12.54ZM6 15.658C6 15.3803 5.89464 15.1139 5.70711 14.9174C5.51957 14.721 5.26522 14.6107 5 14.6107C4.73478 14.6107 4.48043 14.721 4.29289 14.9174C4.10536 15.1139 4 15.3803 4 15.658C4 15.9358 4.10536 16.2022 4.29289 16.3986C4.48043 16.5951 4.73478 16.7054 5 16.7054C5.26522 16.7054 5.51957 16.5951 5.70711 16.3986C5.89464 16.2022 6 15.9358 6 15.658ZM20 15.658C20 15.3803 19.8946 15.1139 19.7071 14.9174C19.5196 14.721 19.2652 14.6107 19 14.6107C18.7348 14.6107 18.4804 14.721 18.2929 14.9174C18.1054 15.1139 18 15.3803 18 15.658C18 15.9358 18.1054 16.2022 18.2929 16.3986C18.4804 16.5951 18.7348 16.7054 19 16.7054C19.2652 16.7054 19.5196 16.5951 19.7071 16.3986C19.8946 16.2022 20 15.9358 20 15.658ZM6.942 20.8948C7.529 25.0361 1.47 25.034 2.058 20.8948H6.942ZM21.942 20.8948C22.529 25.0361 16.47 25.034 17.058 20.8948H21.942Z" fill="#BC8431"/>
</svg>
