<svg width="24" height="24" viewBox="0 0 24 24" fill="none" xmlns="http://www.w3.org/2000/svg">
<g clip-path="url(#clip0_0_94)">
<path d="M15.288 4.20302C14.9 3.81002 14.904 3.17702 15.297 2.78902L17.501 0.612023C18.318 -0.201977 19.649 -0.202977 20.471 0.616023L22.698 2.78402C23.094 3.16902 23.102 3.80202 22.718 4.19802C22.522 4.39902 22.262 4.50002 22.001 4.50002C21.749 4.50002 21.498 4.40602 21.304 4.21602L20.001 2.94802V9.00002C20.001 9.55202 19.554 10 19.001 10C18.448 10 18.001 9.55202 18.001 9.00002V2.93002L16.704 4.21102C16.31 4.59902 15.679 4.59602 15.289 4.20202L15.288 4.20302ZM24 11V21C24 22.654 22.654 24 21 24H5C2.243 24 0 21.757 0 19V9.00002C0 8.11302 0.232 7.27902 0.639 6.55602C0.659 6.51602 0.681 6.47702 0.706 6.44002C1.58 4.98002 3.178 4.00002 5 4.00002H12C12.553 4.00002 13 4.44802 13 5.00002C13 5.55202 12.553 6.00002 12 6.00002H5C4.113 6.00002 3.314 6.38702 2.765 7.00102C3.328 7.62802 4.141 8.00002 5 8.00002H16V9.00002C16 10.654 17.346 12 19 12C20.654 12 22 10.654 22 9.00002V8.18402C23.161 8.59802 24 9.69802 24 11ZM20 16C20 15.172 19.328 14.5 18.5 14.5C17.672 14.5 17 15.172 17 16C17 16.828 17.672 17.5 18.5 17.5C19.328 17.5 20 16.828 20 16Z" fill="#BC8431"/>
</g>
<defs>
<clipPath id="clip0_0_94">
<rect width="24" height="24" fill="white"/>
</clipPath>
</defs>
</svg>
