<svg width="24" height="24" viewBox="0 0 24 24" fill="none" xmlns="http://www.w3.org/2000/svg">
<g clip-path="url(#clip0_0_71)">
<path d="M8 12C11.309 12 14 9.309 14 6C14 2.691 11.309 0 8 0C4.691 0 2 2.691 2 6C2 9.309 4.691 12 8 12ZM8 14C3.589 14 0 17.589 0 22V23C0 23.552 0.448 24 1 24H15C15.552 24 16 23.552 16 23V22C16 17.589 12.411 14 8 14ZM23.697 10.217L19.705 14.092C19.124 14.674 18.337 14.999 17.5 14.999C16.663 14.999 15.876 14.673 15.285 14.082L13.314 12.228C12.912 11.85 12.893 11.217 13.272 10.814C13.651 10.412 14.283 10.393 14.686 10.772L16.678 12.647C17.149 13.117 17.873 13.096 18.301 12.668L22.303 8.782C22.699 8.397 23.332 8.407 23.717 8.803C24.102 9.199 24.092 9.833 23.696 10.217H23.697Z" fill="#BC8431"/>
</g>
<defs>
<clipPath id="clip0_0_71">
<rect width="24" height="24" fill="white"/>
</clipPath>
</defs>
</svg>
