<svg width="24" height="24" viewBox="0 0 24 24" fill="none" xmlns="http://www.w3.org/2000/svg">
<g clip-path="url(#clip0_0_87)">
<path d="M21.526 8.28399L13.937 0.878993C13.278 0.218993 12.33 -0.104007 11.409 0.027993L4.52096 0.969993C3.97396 1.04499 3.59096 1.54899 3.66596 2.09599C3.74096 2.64299 4.24396 3.02499 4.79296 2.95099L11.682 2.00899C11.988 1.96699 12.304 2.07199 12.533 2.30099L20.123 9.70599C21.168 10.751 21.27 12.386 20.446 13.553C20.212 13.086 19.923 12.641 19.535 12.253L12.06 4.84099C11.402 4.18299 10.463 3.86599 9.53196 3.98999L2.64296 4.93199C2.18896 4.99399 1.83496 5.35699 1.78496 5.81299L1.01996 12.729C0.919965 13.64 1.23396 14.533 1.88396 15.182L9.29996 22.535C10.244 23.48 11.499 23.999 12.834 23.999H12.851C14.193 23.995 15.451 23.467 16.394 22.512L19.561 19.304C20.488 18.365 20.954 17.145 20.984 15.916L21.561 15.34C23.486 13.39 23.475 10.228 21.529 8.28299L21.526 8.28399ZM5.99996 9.99999C5.44796 9.99999 4.99996 9.55199 4.99996 8.99999C5.00596 7.69199 6.99396 7.69299 6.99996 8.99999C6.99996 9.55199 6.55196 9.99999 5.99996 9.99999Z" fill="#BC8431"/>
</g>
<defs>
<clipPath id="clip0_0_87">
<rect width="24" height="24" fill="white"/>
</clipPath>
</defs>
</svg>
