<svg width="130" height="130" viewBox="0 0 130 130" fill="none" xmlns="http://www.w3.org/2000/svg">
<circle cx="65" cy="65" r="64.5" stroke="#BC8431"/>
<path d="M47 95.28V85.84L62.68 72.8C63.8 71.84 65.08 70.7733 66.52 69.6C68.0133 68.3733 69.4267 67.0667 70.76 65.68C72.1467 64.2933 73.2667 62.8267 74.12 61.28C75.0267 59.7333 75.48 58.1333 75.48 56.48C75.48 54.1867 74.76 52.32 73.32 50.88C71.9333 49.44 69.88 48.72 67.16 48.72C64.6 48.72 62.5733 49.3067 61.08 50.48C59.64 51.6 58.7333 53.04 58.36 54.8H47.32C47.64 51.0133 48.76 47.8933 50.68 45.44C52.6533 42.9333 55.1333 41.0667 58.12 39.84C61.1067 38.6133 64.2533 38 67.56 38C71.1333 38 74.3867 38.6667 77.32 40C80.2533 41.3333 82.5733 43.28 84.28 45.84C85.9867 48.3467 86.84 51.4667 86.84 55.2C86.84 58.4 86.2267 61.3067 85 63.92C83.8267 66.48 82.2 68.88 80.12 71.12C78.04 73.3067 75.6933 75.4133 73.08 77.44L64.12 84.72H86.76V95.28H47Z" fill="#BC8431"/>
<path d="M42.5 92.28V92.78H43H82.76H83.26V92.28V81.72V81.22H82.76H61.5283L69.3909 74.8317C72.0204 72.7921 74.3846 70.6699 76.4823 68.4646L76.4823 68.4646L76.4864 68.4602C78.599 66.1852 80.2564 63.7419 81.4536 61.1304C82.7141 58.4442 83.34 55.4646 83.34 52.2C83.34 48.3906 82.4688 45.1672 80.6946 42.5605C78.9338 39.9202 76.5401 37.9145 73.5269 36.5448C70.5218 35.1789 67.1969 34.5 63.56 34.5C60.1898 34.5 56.9784 35.1255 53.93 36.3775C50.8647 37.6365 48.3144 39.5555 46.2871 42.1307L46.2862 42.1319C44.2942 44.6772 43.1482 47.8958 42.8218 51.7579L42.776 52.3H43.32H54.36H54.7651L54.8491 51.9038C55.1976 50.261 56.0387 48.9234 57.387 47.8747L57.3889 47.8732C58.7679 46.7897 60.6732 46.22 63.16 46.22C65.7947 46.22 67.6975 46.916 68.9598 48.2268L68.9598 48.2269L68.9664 48.2336C70.3005 49.5676 70.98 51.301 70.98 53.48C70.98 55.037 70.5543 56.5505 69.6887 58.0272L69.6885 58.0271L69.6822 58.0385C68.8539 59.5398 67.7635 60.9694 66.4064 62.3265L66.4064 62.3264L66.3996 62.3335C65.08 63.7058 63.6813 64.999 62.2032 66.2132C60.7624 67.3872 59.4804 68.4555 58.3575 69.4179C58.3566 69.4187 58.3556 69.4195 58.3546 69.4204L42.6803 82.4556L42.5 82.6055V82.84V92.28Z" stroke="#BC8431"/>
</svg>
