<svg width="130" height="130" viewBox="0 0 130 130" fill="none" xmlns="http://www.w3.org/2000/svg">
<circle cx="65" cy="65" r="64.5" stroke="#BC8431"/>
<path d="M66.67 91.4899C64.29 91.4899 62.0033 91.2099 59.81 90.6499C57.6167 90.0899 55.61 89.2032 53.79 87.9899C51.97 86.7766 50.4533 85.2366 49.24 83.3699C48.0267 81.4566 47.28 79.1699 47 76.5099H56.94C57.2667 77.8166 57.8967 78.9132 58.83 79.7999C59.81 80.6399 60.9767 81.2466 62.33 81.6199C63.73 81.9932 65.2 82.1799 66.74 82.1799C67.7667 82.1799 68.77 82.0866 69.75 81.8999C70.7767 81.7132 71.6867 81.3866 72.48 80.9199C73.32 80.4532 73.9733 79.8232 74.44 79.0299C74.9067 78.2366 75.14 77.2332 75.14 76.0199C75.14 74.8999 74.93 73.9666 74.51 73.2199C74.09 72.4732 73.53 71.8666 72.83 71.3999C72.13 70.9332 71.29 70.6066 70.31 70.4199C69.3767 70.2332 68.3733 70.1399 67.3 70.1399H61.56V61.5999H65.41C66.6233 61.5999 67.72 61.4832 68.7 61.2499C69.68 60.9699 70.4967 60.5966 71.15 60.1299C71.85 59.6166 72.3867 59.0099 72.76 58.3099C73.1333 57.5632 73.32 56.7232 73.32 55.7899C73.32 54.3899 73.0167 53.2932 72.41 52.4999C71.8033 51.6599 70.9633 51.0532 69.89 50.6799C68.8167 50.3066 67.58 50.1199 66.18 50.1199C64.8733 50.1199 63.6367 50.3299 62.47 50.7499C61.35 51.1232 60.4167 51.6832 59.67 52.4299C58.9233 53.1766 58.4333 54.0866 58.2 55.1599H48.47C48.75 52.6399 49.4267 50.4932 50.5 48.7199C51.5733 46.8999 52.95 45.4066 54.63 44.2399C56.31 43.0732 58.1767 42.2332 60.23 41.7199C62.33 41.1599 64.5 40.8799 66.74 40.8799C68.8867 40.8799 70.94 41.1132 72.9 41.5799C74.86 42.0466 76.61 42.8166 78.15 43.8899C79.7367 44.9166 80.9967 46.2932 81.93 48.0199C82.8633 49.7466 83.33 51.8232 83.33 54.2499C83.33 55.7432 83.0733 57.1432 82.56 58.4499C82.0933 59.7566 81.3933 60.9232 80.46 61.9499C79.5733 62.9299 78.5233 63.7466 77.31 64.3999C79.13 64.9132 80.6233 65.7532 81.79 66.9199C82.9567 68.0866 83.82 69.4632 84.38 71.0499C84.9867 72.6366 85.29 74.3399 85.29 76.1599C85.29 79.1466 84.73 81.6432 83.61 83.6499C82.5367 85.6099 81.09 87.1732 79.27 88.3399C77.45 89.4599 75.4433 90.2766 73.25 90.7899C71.0567 91.2566 68.8633 91.4899 66.67 91.4899Z" fill="#BC8431"/>
<path d="M45.8177 80.7578L45.8177 80.7578C44.5563 78.7686 43.7894 76.4052 43.5027 73.6824L43.4446 73.13H44H53.94H54.3304L54.4251 73.5087C54.7287 74.7234 55.309 75.7321 56.1652 76.5487C57.0821 77.3321 58.1776 77.9031 59.4609 78.2574C60.8157 78.6185 62.2415 78.8 63.74 78.8C64.7362 78.8 65.7082 78.7095 66.6564 78.5288L66.6606 78.5281C67.637 78.3505 68.4901 78.0422 69.2265 77.6091L69.2371 77.6028L69.2372 77.6029C70.0028 77.1776 70.5896 76.6095 71.009 75.8965C71.4183 75.2007 71.64 74.2918 71.64 73.14C71.64 72.0802 71.4411 71.2374 71.0742 70.5851C70.6921 69.9058 70.1859 69.3582 69.5527 68.936C68.9176 68.5127 68.1428 68.2076 67.2164 68.0312L67.2119 68.0303C66.3147 67.8509 65.3445 67.76 64.3 67.76H58.56H58.06V67.26V58.72V58.22H58.56H62.41C63.5874 58.22 64.6407 58.1072 65.5733 57.8862C66.5063 57.6186 67.2632 57.2684 67.8568 56.845C68.4989 56.3736 68.9814 55.8251 69.3157 55.2006C69.6485 54.5326 69.82 53.7725 69.82 52.91C69.82 51.5767 69.5306 50.6009 69.0128 49.9237L69.0045 49.9129L69.0047 49.9128C68.4639 49.164 67.712 48.6153 66.7257 48.2723C65.7159 47.921 64.5366 47.74 63.18 47.74C61.9279 47.74 60.7488 47.941 59.6394 48.3405L59.6282 48.3445L59.6281 48.3444C58.573 48.6961 57.7091 49.218 57.0236 49.9036C56.3475 50.5796 55.9024 51.4026 55.6886 52.3862L55.603 52.78H55.2H45.47H44.9114L44.9731 52.2248C45.2592 49.6496 45.9533 47.4307 47.0708 45.5835C48.1793 43.7047 49.6044 42.158 51.3448 40.9493C53.0752 39.7477 54.9965 38.8835 57.1049 38.3559C59.2471 37.785 61.4592 37.5 63.74 37.5C65.9231 37.5 68.0155 37.7373 70.0158 38.2136C72.0293 38.693 73.8355 39.4858 75.4289 40.5949C77.0854 41.6685 78.3996 43.1073 79.3699 44.9023C80.3509 46.7173 80.83 48.8797 80.83 51.37C80.83 52.9191 80.564 54.3791 80.0283 55.7455C79.5395 57.111 78.8064 58.3321 77.8308 59.4055C77.8305 59.4058 77.8302 59.4061 77.83 59.4064L77.46 59.07C76.722 59.8857 75.8708 60.5882 74.9065 61.1776L45.8177 80.7578ZM45.8177 80.7578L45.8208 80.7625C47.0705 82.6851 48.6351 84.2743 50.5127 85.526C52.3813 86.7718 54.4402 87.681 56.6863 88.2545C58.9221 88.8253 61.2504 89.11 63.67 89.11C65.8991 89.11 68.1273 88.8728 70.3541 88.3991L70.3541 88.3992L70.3639 88.3969C72.6068 87.8719 74.6639 87.0355 76.532 85.8858L76.5321 85.8859L76.5398 85.881C78.4322 84.6679 79.9356 83.0419 81.0476 81.0119C82.2191 78.912 82.79 76.3262 82.79 73.28C82.79 71.4057 82.4778 69.6434 81.8494 67.9975C81.2649 66.3445 80.3626 64.9055 79.1436 63.6865C78.1475 62.6904 76.9327 61.9261 75.5089 61.3879L45.8177 80.7578Z" stroke="#BC8431"/>
</svg>
