<svg width="130" height="130" viewBox="0 0 130 130" fill="none" xmlns="http://www.w3.org/2000/svg">
<circle cx="65" cy="65" r="64.5" stroke="#BC8431"/>
<path d="M59.677 91.3418V91.8418H60.177H72.2372H72.7372V91.3418V34.3599V33.8599H72.2372H63.4662H63.1884L63.0416 34.0957C62.0069 35.7588 60.7917 37.0431 59.4008 37.9633C57.9976 38.8378 56.4001 39.4596 54.6027 39.8242C52.7781 40.1403 50.7253 40.326 48.4425 40.3791L47.9541 40.3905V40.879V49.5711V50.0711H48.4541H59.677V91.3418Z" stroke="#BC8431"/>
<path d="M64.394 94.3598V52.5892H52.6711V43.8971C54.9764 43.8434 57.0567 43.6556 58.9121 43.3337C60.7675 42.9581 62.4262 42.3142 63.888 41.4021C65.3499 40.4363 66.6149 39.0949 67.6832 37.3779H76.4543V94.3598H64.394Z" fill="#BC8431"/>
</svg>
